<?xml version="1.0" encoding="UTF-8" ?>
<!DOCTYPE svg PUBLIC "-//W3C//DTD SVG 1.1//EN" "http://www.w3.org/Graphics/SVG/1.1/DTD/svg11.dtd">
<svg width="313pt" height="253pt" viewBox="0 0 313 253" version="1.1" xmlns="http://www.w3.org/2000/svg">
<g id="#484848ff">
<path fill="#484848" opacity="1.00" d=" M 0.00 0.00 L 0.30 0.00 C 0.23 0.07 0.08 0.21 0.00 0.28 L 0.00 0.00 Z" />
<path fill="#484848" opacity="1.00" d=" M 28.31 30.50 L 29.15 29.88 L 29.94 30.29 C 29.55 30.56 28.78 31.12 28.39 31.40 L 28.31 30.50 Z" />
<path fill="#484848" opacity="1.00" d=" M 25.03 31.84 C 25.45 31.57 26.27 31.03 26.68 30.76 L 26.76 31.64 L 25.92 32.20 L 25.03 31.84 Z" />
<path fill="#484848" opacity="1.00" d=" M 247.37 72.65 C 247.53 72.76 247.84 72.96 248.00 73.06 L 247.50 73.09 L 247.37 72.65 Z" />
<path fill="#484848" opacity="1.00" d=" M 248.00 73.06 C 248.13 73.18 248.41 73.43 248.54 73.55 L 248.08 73.65 L 248.00 73.06 Z" />
<path fill="#484848" opacity="1.00" d=" M 243.37 78.68 C 243.42 78.57 243.51 78.33 243.55 78.22 C 243.51 78.33 243.42 78.57 243.37 78.68 Z" />
<path fill="#484848" opacity="1.00" d=" M 247.85 86.32 C 247.79 84.94 248.31 82.87 250.07 82.96 C 250.03 84.43 249.29 85.81 247.85 86.32 Z" />
<path fill="#484848" opacity="1.00" d=" M 247.49 86.69 C 247.58 86.60 247.76 86.41 247.85 86.32 C 247.76 86.41 247.58 86.60 247.49 86.69 Z" />
<path fill="#484848" opacity="1.00" d=" M 236.36 91.95 C 236.60 91.63 237.08 90.99 237.32 90.67 L 238.09 91.16 C 237.83 91.50 237.30 92.17 237.04 92.51 L 236.36 91.95 Z" />
<path fill="#484848" opacity="1.00" d=" M 242.20 91.21 C 242.66 91.21 243.56 91.20 244.02 91.20 C 243.72 91.48 243.12 92.04 242.82 92.32 L 242.01 92.00 L 242.20 91.21 Z" />
<path fill="#484848" opacity="1.00" d=" M 142.39 95.16 C 141.40 94.31 141.87 91.50 143.48 92.18 C 143.89 93.20 143.66 94.13 142.81 94.96 L 142.39 95.16 Z" />
<path fill="#484848" opacity="1.00" d=" M 239.26 97.30 C 239.50 95.73 240.32 94.24 241.90 93.69 L 242.66 93.95 C 242.43 95.60 241.06 96.59 239.72 97.36 L 239.26 97.30 Z" />
<path fill="#484848" opacity="1.00" d=" M 149.22 96.41 C 149.60 96.62 150.35 97.06 150.72 97.27 C 150.71 97.54 150.67 98.09 150.66 98.37 C 150.03 98.23 148.76 97.96 148.13 97.83 C 148.40 97.47 148.95 96.76 149.22 96.41 Z" />
<path fill="#484848" opacity="1.00" d=" M 239.18 100.14 C 236.68 100.58 237.41 97.56 239.26 97.30 L 239.48 97.85 C 239.41 98.42 239.26 99.56 239.18 100.14 Z" />
<path fill="#484848" opacity="1.00" d=" M 240.87 100.10 C 241.42 99.87 242.51 99.40 243.05 99.16 L 242.66 99.92 C 242.22 99.96 241.32 100.06 240.87 100.10 Z" />
<path fill="#484848" opacity="1.00" d=" M 233.86 102.29 C 234.01 102.13 234.30 101.80 234.45 101.63 C 234.30 101.80 234.01 102.13 233.86 102.29 Z" />
<path fill="#484848" opacity="1.00" d=" M 233.10 103.02 C 233.29 102.83 233.67 102.47 233.86 102.29 L 233.56 102.85 L 233.10 103.02 Z" />
<path fill="#484848" opacity="1.00" d=" M 232.49 103.52 C 232.64 103.39 232.94 103.14 233.10 103.02 C 232.94 103.14 232.64 103.39 232.49 103.52 Z" />
<path fill="#484848" opacity="1.00" d=" M 233.56 102.85 L 234.21 102.86 C 234.90 103.34 236.29 104.28 236.98 104.76 C 235.60 106.19 233.69 104.39 233.56 102.85 Z" />
<path fill="#484848" opacity="1.00" d=" M 226.24 106.88 C 226.37 106.72 226.63 106.41 226.76 106.26 C 226.63 106.41 226.37 106.72 226.24 106.88 Z" />
<path fill="#484848" opacity="1.00" d=" M 232.54 106.47 C 233.86 106.18 234.38 106.85 234.10 108.47 C 232.67 108.34 232.15 107.68 232.54 106.47 Z" />
<path fill="#484848" opacity="1.00" d=" M 237.03 107.47 C 236.59 104.13 233.65 107.63 237.03 107.47 Z" />
<path fill="#484848" opacity="1.00" d=" M 237.76 107.13 C 237.86 106.99 238.07 106.70 238.18 106.55 C 238.07 106.70 237.86 106.99 237.76 107.13 Z" />
<path fill="#484848" opacity="1.00" d=" M 229.33 107.45 C 229.27 107.58 229.14 107.83 229.07 107.96 L 229.33 107.45 Z" />
<path fill="#484848" opacity="1.00" d=" M 237.03 107.47 L 237.76 107.13 C 237.54 107.36 237.11 107.80 236.89 108.02 L 237.03 107.47 Z" />
<path fill="#484848" opacity="1.00" d=" M 226.21 107.54 C 226.72 107.87 227.75 108.55 228.26 108.89 C 227.91 109.16 227.21 109.72 226.86 110.00 L 226.11 109.74 C 226.14 109.19 226.19 108.09 226.21 107.54 Z" />
<path fill="#484848" opacity="1.00" d=" M 228.26 108.89 C 228.46 108.65 228.87 108.19 229.07 107.96 C 228.87 108.19 228.46 108.65 228.26 108.89 Z" />
<path fill="#484848" opacity="1.00" d=" M 236.28 108.65 C 236.43 108.50 236.74 108.18 236.89 108.02 C 236.74 108.18 236.43 108.50 236.28 108.65 Z" />
<path fill="#484848" opacity="1.00" d=" M 232.33 110.02 C 232.56 109.87 233.04 109.57 233.27 109.43 L 233.20 109.87 L 232.33 110.02 Z" />
<path fill="#484848" opacity="1.00" d=" M 225.65 110.22 C 225.77 110.10 226.00 109.86 226.11 109.74 C 226.00 109.86 225.77 110.10 225.65 110.22 Z" />
<path fill="#484848" opacity="1.00" d=" M 231.13 110.85 C 231.43 110.64 232.03 110.23 232.33 110.02 L 232.18 110.73 L 231.13 110.85 Z" />
<path fill="#484848" opacity="1.00" d=" M 234.67 109.91 L 235.46 109.48 C 235.28 109.75 234.93 110.29 234.75 110.55 L 234.67 109.91 Z" />
<path fill="#484848" opacity="1.00" d=" M 229.49 111.80 C 229.64 111.70 229.95 111.49 230.11 111.39 C 229.95 111.49 229.64 111.70 229.49 111.80 Z" />
<path fill="#484848" opacity="1.00" d=" M 234.20 110.66 L 234.75 110.55 C 234.64 110.73 234.40 111.09 234.28 111.27 L 234.20 110.66 Z" />
<path fill="#484848" opacity="1.00" d=" M 226.50 112.50 C 226.52 112.46 226.56 112.39 226.59 112.36 L 226.58 112.44 L 226.50 112.50 Z" />
<path fill="#484848" opacity="1.00" d=" M 209.88 120.23 C 207.90 119.87 210.12 117.81 211.28 118.42 L 211.36 119.26 C 210.99 119.50 210.25 119.99 209.88 120.23 Z" />
<path fill="#484848" opacity="1.00" d=" M 192.35 121.56 C 192.45 121.63 192.65 121.76 192.76 121.82 C 192.65 121.76 192.45 121.63 192.35 121.56 Z" />
<path fill="#484848" opacity="1.00" d=" M 202.97 122.66 C 204.08 121.68 206.04 120.65 207.18 122.18 C 206.05 122.95 204.65 123.72 203.27 123.06 L 202.97 122.66 Z" />
<path fill="#484848" opacity="1.00" d=" M 198.81 123.30 C 200.30 123.22 201.79 123.14 203.27 123.06 L 203.50 123.71 C 202.68 125.01 201.82 126.26 200.95 127.52 C 200.70 127.16 200.21 126.45 199.96 126.10 C 200.17 125.55 200.59 124.45 200.80 123.90 C 200.31 123.75 199.31 123.45 198.81 123.30 Z" />
<path fill="#484848" opacity="1.00" d=" M 194.10 123.69 C 194.64 123.93 195.71 124.41 196.24 124.65 C 195.80 124.60 194.92 124.51 194.48 124.46 L 194.10 123.69 Z" />
<path fill="#484848" opacity="1.00" d=" M 196.25 129.94 C 196.64 129.53 197.42 128.69 197.81 128.27 L 198.56 128.48 C 198.87 128.78 199.49 129.37 199.79 129.67 C 198.63 130.14 197.45 130.23 196.25 129.94 Z" />
<path fill="#484848" opacity="1.00" d=" M 166.52 161.43 L 166.70 161.82 L 166.55 161.98 L 166.49 161.69 L 166.52 161.43 Z" />
<path fill="#484848" opacity="1.00" d=" M 168.94 173.30 C 168.95 173.35 168.98 173.43 169.00 173.47 C 168.98 173.43 168.95 173.35 168.94 173.30 Z" />
<path fill="#484848" opacity="1.00" d=" M 163.74 179.19 C 163.56 177.72 164.04 176.61 165.18 175.87 C 165.57 177.30 165.10 178.41 163.74 179.19 Z" />
<path fill="#484848" opacity="1.00" d=" M 166.42 177.72 C 166.48 177.60 166.59 177.35 166.65 177.23 C 166.59 177.35 166.48 177.60 166.42 177.72 Z" />
<path fill="#484848" opacity="1.00" d=" M 163.06 179.70 C 163.23 179.57 163.57 179.32 163.74 179.19 C 163.57 179.32 163.23 179.57 163.06 179.70 Z" />
<path fill="#484848" opacity="1.00" d=" M 170.78 179.13 L 171.57 178.87 C 171.66 180.82 171.70 182.77 171.70 184.73 L 171.00 184.76 C 171.33 183.77 171.13 182.86 170.42 182.04 C 170.45 181.42 170.51 180.18 170.55 179.57 C 170.60 179.46 170.72 179.24 170.78 179.13 Z" />
<path fill="#484848" opacity="1.00" d=" M 161.07 182.40 C 161.50 181.35 162.01 180.25 163.06 179.70 C 163.26 181.01 163.47 182.56 162.51 183.65 C 162.15 183.34 161.43 182.71 161.07 182.40 Z" />
<path fill="#484848" opacity="1.00" d=" M 168.36 180.46 C 168.39 180.44 168.45 180.40 168.48 180.38 C 168.45 180.40 168.39 180.44 168.36 180.46 Z" />
<path fill="#484848" opacity="1.00" d=" M 164.13 184.06 C 163.30 182.66 163.57 181.63 164.96 180.95 C 165.33 182.16 165.05 183.19 164.13 184.06 Z" />
<path fill="#484848" opacity="1.00" d=" M 165.67 185.66 C 165.69 185.60 165.73 185.47 165.75 185.40 C 165.73 185.47 165.69 185.60 165.67 185.66 Z" />
<path fill="#484848" opacity="1.00" d=" M 161.14 187.71 L 161.46 187.49 C 161.38 187.58 161.24 187.77 161.17 187.86 L 161.14 187.71 Z" />
<path fill="#484848" opacity="1.00" d=" M 168.39 190.18 C 168.71 190.23 169.36 190.33 169.69 190.38 C 168.68 192.17 169.14 194.68 167.62 196.09 L 167.95 194.96 C 168.02 194.57 168.16 193.80 168.23 193.41 C 168.27 192.60 168.35 190.99 168.39 190.18 Z" />
<path fill="#484848" opacity="1.00" d=" M 161.53 191.95 C 161.61 191.89 161.77 191.78 161.85 191.73 C 161.77 191.78 161.61 191.89 161.53 191.95 Z" />
</g>
<g id="#b5b092ff">
<path fill="#b5b092" opacity="1.00" d=" M 0.30 0.00 L 63.52 0.00 C 58.60 3.06 52.85 4.22 47.48 6.24 C 37.12 8.65 27.05 12.08 16.79 14.86 C 16.66 15.30 16.39 16.19 16.25 16.64 C 21.14 17.02 25.36 13.97 30.15 13.63 C 33.72 13.58 36.64 11.30 40.03 10.54 C 44.15 9.62 48.36 9.12 52.51 8.35 C 59.65 6.94 66.75 5.09 74.04 4.74 C 71.52 7.33 67.85 8.03 64.72 9.62 C 58.41 12.82 51.31 14.26 45.41 18.31 C 39.75 22.25 33.08 24.47 27.78 28.93 C 22.01 31.18 17.31 35.41 11.42 37.39 C 11.43 37.98 11.45 39.17 11.47 39.76 C 17.81 37.64 24.08 35.14 29.92 31.84 C 35.23 29.17 41.41 28.62 46.45 25.38 C 49.03 23.78 51.91 22.75 54.85 22.06 C 50.52 25.94 44.62 28.62 42.30 34.28 C 39.37 40.49 35.89 46.64 34.83 53.52 C 32.00 52.27 29.19 50.80 26.07 50.47 C 21.35 49.90 16.83 48.03 12.03 48.19 C 8.02 48.21 4.01 48.24 0.00 48.18 L 0.00 0.28 C 0.08 0.21 0.23 0.07 0.30 0.00 Z" />
<path fill="#b5b092" opacity="1.00" d=" M 262.27 0.00 L 313.00 0.00 L 313.00 11.95 C 311.25 13.27 309.41 14.88 307.06 14.63 C 299.28 14.49 291.47 14.94 283.73 14.39 C 273.98 12.28 263.79 9.75 255.92 3.31 C 257.99 2.13 260.09 0.97 262.27 0.00 Z" />
<path fill="#b5b092" opacity="1.00" d=" M 0.00 149.79 C 7.41 155.32 14.95 161.01 23.69 164.26 C 26.53 165.89 29.72 166.61 32.98 166.65 C 34.22 167.21 35.51 167.78 36.91 167.71 C 42.64 167.83 48.57 168.03 53.98 165.78 C 55.19 166.87 56.76 167.71 57.51 169.21 C 59.49 173.53 61.93 177.62 64.22 181.77 C 67.47 185.57 71.50 188.73 74.28 192.95 C 78.16 198.92 82.54 204.58 87.54 209.66 C 91.22 214.29 94.34 219.34 98.14 223.89 C 102.99 229.59 105.90 236.62 110.70 242.35 C 110.58 245.90 110.36 249.45 110.20 253.00 L 1.11 253.00 C 0.73 239.99 1.11 226.98 0.93 213.97 C 0.78 209.48 1.42 204.87 0.00 200.53 L 0.00 149.79 Z" />
</g>
<g id="#191812ff">
<path fill="#191812" opacity="1.00" d=" M 63.52 0.00 L 68.43 0.00 C 62.54 2.21 56.78 4.77 50.81 6.79 C 57.95 6.30 64.81 3.91 71.95 3.42 C 77.81 3.12 83.32 0.73 89.19 0.57 C 89.33 1.00 89.61 1.86 89.75 2.30 C 86.25 2.58 82.65 2.87 79.45 4.43 C 70.44 9.09 61.12 13.13 51.68 16.83 C 47.19 18.77 43.12 21.51 38.88 23.91 C 36.51 25.28 33.78 26.09 31.83 28.09 C 30.63 28.08 29.60 28.76 29.15 29.88 L 28.31 30.50 C 27.90 30.56 27.09 30.70 26.68 30.76 C 26.27 31.03 25.45 31.57 25.03 31.84 L 24.23 32.41 C 22.90 32.27 22.10 32.88 21.85 34.22 C 21.49 34.59 21.49 34.59 21.85 34.22 C 22.48 33.99 23.74 33.52 24.36 33.28 C 24.75 33.01 25.53 32.47 25.92 32.20 L 26.76 31.64 C 27.17 31.58 27.98 31.46 28.39 31.40 C 28.78 31.12 29.55 30.56 29.94 30.29 C 30.48 29.97 31.57 29.34 32.11 29.02 C 37.07 27.75 42.10 26.46 46.48 23.69 C 51.05 20.69 56.76 20.80 61.56 18.33 C 66.41 15.75 71.64 13.44 77.20 13.20 C 74.87 16.48 70.35 16.31 66.98 17.86 C 63.24 19.63 59.06 21.01 56.26 24.21 C 53.35 27.42 48.95 28.77 46.17 32.13 C 44.52 34.23 43.17 36.60 42.35 39.16 C 40.39 45.83 38.43 52.51 36.16 59.08 C 35.71 61.58 35.96 64.14 35.76 66.66 C 32.62 63.70 34.13 58.74 34.57 55.00 C 30.02 52.63 25.02 51.65 20.01 50.83 C 13.50 48.89 6.68 49.79 0.00 49.67 L 0.00 48.18 C 4.01 48.24 8.02 48.21 12.03 48.19 C 16.83 48.03 21.35 49.90 26.07 50.47 C 29.19 50.80 32.00 52.27 34.83 53.52 C 35.89 46.64 39.37 40.49 42.30 34.28 C 44.62 28.62 50.52 25.94 54.85 22.06 C 51.91 22.75 49.03 23.78 46.45 25.38 C 41.41 28.62 35.23 29.17 29.92 31.84 C 24.08 35.14 17.81 37.64 11.47 39.76 C 11.45 39.17 11.43 37.98 11.42 37.39 C 17.31 35.41 22.01 31.18 27.78 28.93 C 33.08 24.47 39.75 22.25 45.41 18.31 C 51.31 14.26 58.41 12.82 64.72 9.62 C 67.85 8.03 71.52 7.33 74.04 4.74 C 66.75 5.09 59.65 6.94 52.51 8.35 C 48.36 9.12 44.15 9.62 40.03 10.54 C 36.64 11.30 33.72 13.58 30.15 13.63 C 25.36 13.97 21.14 17.02 16.25 16.64 C 16.39 16.19 16.66 15.30 16.79 14.86 C 27.05 12.08 37.12 8.65 47.48 6.24 C 52.85 4.22 58.60 3.06 63.52 0.00 Z" />
<path fill="#191812" opacity="1.00" d=" M 123.35 55.13 C 125.73 54.93 125.23 57.74 125.54 59.27 C 125.07 59.37 124.14 59.55 123.68 59.65 C 123.73 58.13 123.58 56.63 123.35 55.13 Z" />
<path fill="#191812" opacity="1.00" d=" M 153.29 203.88 C 153.88 202.23 154.74 200.70 155.72 199.24 C 156.79 199.95 157.87 200.66 158.96 201.36 C 158.27 201.41 156.89 201.50 156.20 201.55 C 156.30 203.04 156.22 204.53 155.89 205.99 C 155.75 205.30 155.47 203.91 155.34 203.22 L 153.71 203.76 L 153.29 203.88 Z" />
</g>
<g id="#84847aff">
<path fill="#84847a" opacity="1.00" d=" M 68.43 0.00 L 248.94 0.00 C 252.27 3.95 257.14 5.79 261.34 8.61 C 265.68 10.93 270.52 12.08 275.08 13.89 C 283.75 16.99 293.03 15.60 302.02 15.94 C 305.75 15.99 309.97 16.72 313.00 13.96 L 313.00 17.49 C 312.67 17.76 312.00 18.31 311.67 18.58 C 311.97 21.98 312.25 25.40 311.91 28.82 C 308.60 28.90 305.34 29.44 302.05 29.71 C 300.22 29.44 298.76 28.12 297.16 27.29 C 292.43 30.63 286.29 28.34 280.93 28.91 C 277.05 28.44 273.92 31.65 270.03 31.08 C 264.04 30.74 257.54 32.16 252.07 28.99 C 246.74 26.50 243.77 20.97 238.54 18.36 C 235.45 16.71 232.69 14.53 230.09 12.20 C 229.28 12.62 228.47 13.03 227.66 13.43 C 227.66 12.95 227.68 11.99 227.69 11.51 C 227.76 7.64 224.86 4.66 223.46 1.25 C 193.33 0.70 163.18 1.31 133.04 0.99 C 130.29 0.85 127.47 1.27 125.40 3.23 C 129.06 4.19 133.02 3.77 136.48 5.49 C 141.15 7.74 146.23 9.21 150.55 12.14 C 149.37 12.67 148.10 12.66 146.96 12.05 C 142.24 10.06 137.46 8.20 132.65 6.46 C 128.23 4.70 124.96 9.13 121.21 10.62 C 120.86 9.03 120.51 7.45 120.15 5.86 C 119.20 5.71 118.26 5.55 117.31 5.39 C 117.05 4.39 116.79 3.40 116.54 2.40 C 115.12 2.47 113.70 2.54 112.29 2.61 C 112.04 3.63 111.80 4.66 111.55 5.68 C 108.67 6.83 105.64 7.79 102.49 7.49 C 100.34 10.85 99.94 14.75 99.60 18.62 C 98.66 21.79 97.49 25.81 94.01 27.00 C 84.73 31.15 76.56 37.54 66.99 41.07 C 64.50 41.75 63.74 44.43 62.17 46.17 C 60.60 48.31 57.64 49.88 58.08 52.94 C 58.23 58.31 57.07 64.05 59.84 68.95 C 59.98 76.78 60.39 84.70 59.39 92.49 C 62.90 98.63 68.52 104.40 68.07 111.97 C 67.87 115.97 68.88 120.41 66.54 123.96 C 69.36 128.29 70.84 133.56 69.64 138.69 C 69.06 140.32 70.32 141.60 71.08 142.89 C 73.76 146.78 69.80 152.85 73.90 156.03 C 75.90 158.10 78.50 155.60 80.68 155.05 C 81.62 153.71 82.57 152.37 83.52 151.03 C 83.98 151.95 84.45 152.87 84.91 153.79 C 83.60 156.92 81.49 159.73 80.59 163.01 C 80.18 169.96 80.30 177.56 83.93 183.71 C 86.61 179.79 87.89 175.22 88.98 170.67 C 93.84 175.75 95.49 183.22 101.05 187.75 C 103.96 189.86 105.91 192.94 108.47 195.43 C 113.07 200.10 118.69 203.66 124.71 206.21 C 128.67 208.37 133.32 207.28 137.62 207.34 C 137.48 207.87 137.21 208.91 137.08 209.44 C 138.53 209.40 139.97 209.36 141.42 209.29 C 143.29 209.39 143.03 206.93 142.48 205.81 C 144.84 202.74 147.13 199.57 150.08 197.03 C 146.11 202.42 144.32 209.09 139.80 214.11 C 143.50 212.32 146.68 209.64 150.45 207.90 C 152.75 207.92 153.60 205.72 153.71 203.76 L 155.34 203.22 C 155.47 203.91 155.75 205.30 155.89 205.99 C 156.22 204.53 156.30 203.04 156.20 201.55 C 156.89 201.50 158.27 201.41 158.96 201.36 C 157.87 200.66 156.79 199.95 155.72 199.24 C 154.74 200.70 153.88 202.23 153.29 203.88 C 152.13 204.76 150.70 205.59 150.33 207.12 C 149.44 207.05 147.67 206.90 146.79 206.82 C 148.58 202.67 152.87 200.67 155.12 196.83 C 156.19 196.25 157.25 195.66 158.30 195.04 C 158.29 192.90 159.09 190.91 159.78 188.93 C 157.93 189.16 157.35 191.06 156.42 192.39 C 154.84 195.10 152.84 197.54 150.52 199.65 C 151.22 197.45 152.44 195.50 153.87 193.72 C 155.05 189.28 158.44 186.00 161.07 182.40 C 161.43 182.71 162.15 183.34 162.51 183.65 C 161.25 184.84 160.80 186.19 161.14 187.71 L 161.17 187.86 C 161.24 187.77 161.38 187.58 161.46 187.49 C 162.38 186.37 163.27 185.23 164.13 184.06 C 165.05 183.19 165.33 182.16 164.96 180.95 C 165.45 179.87 165.93 178.80 166.42 177.72 C 166.48 177.60 166.59 177.35 166.65 177.23 C 166.92 176.62 167.48 175.40 167.76 174.79 C 168.70 176.99 167.47 179.10 166.76 181.15 L 168.36 180.46 C 168.39 180.44 168.45 180.40 168.48 180.38 L 169.64 179.29 C 169.55 177.34 169.52 175.36 169.00 173.47 C 168.98 173.43 168.95 173.35 168.94 173.30 C 168.66 172.67 168.09 171.40 167.81 170.76 C 167.59 167.81 167.26 164.86 166.55 161.98 L 166.70 161.82 C 169.14 160.23 168.48 157.28 167.51 155.06 C 166.76 157.24 166.60 159.53 166.70 161.82 L 166.52 161.43 C 166.27 160.79 165.77 159.53 165.52 158.89 C 166.26 157.34 166.81 155.24 165.13 154.07 C 158.64 144.99 151.11 136.71 143.83 128.26 C 142.18 126.24 141.27 123.55 138.95 122.14 C 136.18 120.40 134.15 117.83 132.15 115.31 C 135.34 111.95 139.19 108.03 138.42 102.97 C 138.66 99.08 135.97 95.97 133.81 93.03 C 132.87 91.46 130.99 91.16 129.38 90.73 C 130.36 92.15 131.67 93.27 132.96 94.41 C 132.31 94.49 131.01 94.64 130.36 94.72 C 130.59 97.20 131.01 99.66 131.64 102.07 C 130.82 102.43 130.01 102.79 129.19 103.15 C 126.38 99.15 125.67 94.26 124.59 89.63 C 125.59 89.07 126.76 89.36 127.85 89.38 C 127.03 88.08 126.45 86.67 126.16 85.16 C 124.09 82.99 121.92 80.91 119.77 78.82 C 119.41 77.57 119.03 76.32 118.64 75.08 C 121.63 73.23 123.64 70.12 123.75 66.56 C 125.59 66.12 127.41 65.62 129.23 65.14 C 128.79 70.08 131.07 74.66 132.67 79.20 C 133.35 78.47 133.72 77.54 133.28 76.57 C 132.40 73.48 131.04 70.53 130.61 67.33 C 130.90 66.92 131.48 66.11 131.77 65.70 C 131.66 64.46 131.49 63.24 131.35 62.01 C 132.87 63.46 133.64 65.42 134.33 67.37 C 134.72 67.42 135.49 67.52 135.88 67.57 C 135.67 68.47 135.47 69.37 135.27 70.27 C 139.94 69.80 140.50 75.61 143.70 77.83 C 143.07 77.91 141.80 78.05 141.17 78.13 C 141.77 78.80 142.38 79.47 142.98 80.14 C 142.24 80.76 141.50 81.39 140.76 82.02 C 140.37 81.69 139.59 81.02 139.20 80.69 C 138.68 80.68 137.63 80.65 137.11 80.64 C 139.28 84.02 142.81 86.71 146.91 87.06 C 152.92 87.97 158.27 84.44 162.98 81.19 C 169.25 96.62 177.27 113.03 192.35 121.56 C 192.45 121.63 192.65 121.76 192.76 121.82 C 192.96 122.06 193.37 122.54 193.57 122.78 L 194.10 123.69 L 194.48 124.46 C 194.92 124.51 195.80 124.60 196.24 124.65 C 196.79 124.93 197.89 125.48 198.44 125.75 C 198.28 126.38 197.97 127.64 197.81 128.27 C 197.42 128.69 196.64 129.53 196.25 129.94 C 197.45 130.23 198.63 130.14 199.79 129.67 C 201.63 129.72 203.47 129.77 205.31 129.76 C 204.59 127.82 202.24 128.38 200.65 128.00 L 200.95 127.52 C 203.00 126.80 205.38 126.67 206.99 125.05 C 205.82 124.61 204.65 124.17 203.50 123.71 L 203.27 123.06 C 204.65 123.72 206.05 122.95 207.18 122.18 C 210.77 121.15 214.37 120.19 217.96 119.13 L 217.88 120.15 C 220.93 122.16 224.03 118.36 226.28 116.61 C 226.37 116.53 226.55 116.38 226.64 116.30 C 228.57 114.54 230.84 113.04 232.18 110.73 C 232.68 110.72 233.70 110.68 234.20 110.66 L 234.28 111.27 C 231.64 117.86 228.32 124.28 224.07 129.98 C 221.28 137.01 217.48 143.62 214.98 150.77 C 213.90 154.85 213.36 159.05 212.61 163.19 C 208.07 162.71 203.59 163.92 200.46 167.40 C 200.33 167.51 200.07 167.74 199.94 167.85 C 199.80 167.97 199.51 168.21 199.37 168.32 C 198.81 168.76 197.69 169.64 197.14 170.07 L 196.99 170.19 C 199.28 165.62 202.88 161.91 206.62 158.50 C 207.90 157.30 209.70 156.96 211.26 156.26 C 209.43 155.34 206.67 155.17 205.65 157.29 C 203.86 160.16 201.42 162.46 198.62 164.32 C 198.53 164.40 198.33 164.55 198.24 164.63 C 196.92 165.76 195.67 166.96 194.48 168.22 C 195.21 166.33 196.10 164.52 197.13 162.79 L 198.04 163.03 C 198.27 162.72 198.72 162.12 198.94 161.82 C 199.08 161.62 199.34 161.24 199.48 161.05 C 199.88 160.68 200.70 159.95 201.11 159.58 L 201.41 159.35 C 201.34 159.27 201.20 159.12 201.13 159.04 C 200.91 158.81 200.46 158.35 200.23 158.12 C 198.96 158.84 198.04 160.00 197.10 161.09 C 196.96 161.24 196.68 161.55 196.54 161.70 C 195.99 162.13 194.88 162.99 194.33 163.42 C 192.68 164.53 190.98 165.59 189.26 166.59 C 189.66 166.83 190.45 167.32 190.85 167.57 C 191.90 166.33 193.13 165.26 194.66 164.63 C 193.70 166.22 192.68 167.77 191.75 169.38 C 191.67 169.49 191.51 169.71 191.44 169.82 C 190.91 170.23 189.84 171.06 189.31 171.47 C 189.35 171.98 189.43 172.99 189.47 173.50 C 189.97 173.49 190.97 173.48 191.47 173.47 C 193.15 172.13 194.97 170.96 196.99 170.19 L 196.89 170.35 C 194.90 173.65 193.42 177.23 191.26 180.43 C 189.01 183.49 189.93 187.45 189.69 190.98 C 184.52 192.14 179.07 193.35 175.01 196.99 C 171.01 200.88 166.87 204.90 164.59 210.10 C 163.08 213.57 161.08 216.79 159.30 220.12 C 156.04 227.59 158.84 236.14 157.20 243.86 C 153.53 247.05 149.52 249.83 145.83 253.00 L 112.48 253.00 C 112.24 249.35 113.12 245.44 111.97 241.95 C 107.24 236.18 104.29 229.23 99.53 223.48 C 95.58 218.72 92.82 213.09 88.64 208.52 C 84.42 204.25 80.53 199.63 77.32 194.56 C 74.57 190.13 70.94 186.33 67.23 182.70 C 61.17 176.73 60.61 166.67 53.04 162.08 C 50.80 156.43 48.04 150.93 46.82 144.93 C 45.84 140.16 44.06 135.60 42.98 130.84 C 43.48 130.72 44.48 130.49 44.98 130.37 C 44.39 130.39 43.20 130.43 42.60 130.45 C 43.68 127.98 43.63 123.75 40.46 123.02 C 41.15 127.07 42.14 131.07 42.46 135.17 C 38.95 138.82 33.01 138.54 28.24 138.17 C 31.13 133.76 37.37 130.06 35.73 124.04 C 34.71 121.93 31.89 122.09 29.91 122.09 C 25.45 122.16 20.30 122.64 16.75 119.37 C 18.62 118.97 20.51 118.66 22.39 118.35 C 24.09 116.87 26.28 116.51 28.45 116.36 C 31.65 113.14 34.34 109.42 36.24 105.30 C 36.78 102.25 36.38 99.12 36.44 96.03 C 36.18 90.81 37.52 85.06 34.24 80.47 C 32.96 77.24 29.93 75.61 27.18 73.84 C 25.04 71.33 23.25 68.43 20.19 66.90 C 18.47 65.77 16.66 64.80 14.84 63.85 C 10.04 61.56 5.02 59.75 0.00 58.02 L 0.00 49.67 C 6.68 49.79 13.50 48.89 20.01 50.83 C 25.02 51.65 30.02 52.63 34.57 55.00 C 34.13 58.74 32.62 63.70 35.76 66.66 C 35.96 64.14 35.71 61.58 36.16 59.08 C 38.43 52.51 40.39 45.83 42.35 39.16 C 43.17 36.60 44.52 34.23 46.17 32.13 C 48.95 28.77 53.35 27.42 56.26 24.21 C 59.06 21.01 63.24 19.63 66.98 17.86 C 70.35 16.31 74.87 16.48 77.20 13.20 C 71.64 13.44 66.41 15.75 61.56 18.33 C 56.76 20.80 51.05 20.69 46.48 23.69 C 42.10 26.46 37.07 27.75 32.11 29.02 L 31.83 28.09 C 33.78 26.09 36.51 25.28 38.88 23.91 C 43.12 21.51 47.19 18.77 51.68 16.83 C 61.12 13.13 70.44 9.09 79.45 4.43 C 82.65 2.87 86.25 2.58 89.75 2.30 C 89.61 1.86 89.33 1.00 89.19 0.57 C 83.32 0.73 77.81 3.12 71.95 3.42 C 64.81 3.91 57.95 6.30 50.81 6.79 C 56.78 4.77 62.54 2.21 68.43 0.00 M 140.92 90.41 L 141.52 89.53 C 145.42 92.34 151.03 92.45 155.14 90.26 C 150.77 89.63 146.33 89.92 141.97 89.09 C 141.84 88.62 141.56 87.70 141.43 87.24 C 141.21 88.28 140.80 89.33 140.92 90.41 M 137.35 90.40 C 137.98 94.42 140.64 97.54 142.59 100.96 C 143.37 102.93 138.96 103.81 140.73 105.71 C 142.01 104.85 143.35 104.09 144.74 103.41 C 143.91 100.63 144.03 97.62 142.81 94.96 C 143.66 94.13 143.89 93.20 143.48 92.18 C 141.87 91.50 141.40 94.31 142.39 95.16 C 142.09 95.31 141.50 95.62 141.21 95.78 C 140.14 93.97 137.93 92.46 138.40 90.13 C 138.14 90.19 137.62 90.33 137.35 90.40 M 145.41 95.37 C 144.96 97.46 145.35 99.86 147.37 101.00 C 147.56 100.21 147.94 98.62 148.13 97.83 C 148.76 97.96 150.03 98.23 150.66 98.37 C 150.82 100.79 149.00 102.70 148.67 105.04 C 149.21 104.83 150.28 104.42 150.82 104.21 C 150.73 105.62 150.64 107.03 150.55 108.45 L 152.06 108.49 C 151.63 104.56 152.94 100.57 152.01 96.72 C 153.06 97.02 155.15 97.60 156.20 97.90 C 154.94 96.83 152.62 96.94 152.41 94.87 C 151.65 95.52 150.85 96.21 150.72 97.27 C 150.35 97.06 149.60 96.62 149.22 96.41 C 147.92 96.14 146.66 95.78 145.41 95.37 M 158.38 103.09 C 157.80 104.80 155.48 108.01 158.32 108.80 C 158.28 108.14 158.19 106.80 158.15 106.14 C 158.83 106.28 160.20 106.56 160.88 106.70 C 160.76 105.59 160.64 104.48 160.52 103.37 C 159.98 103.30 158.91 103.16 158.38 103.09 M 155.06 115.41 C 155.59 115.47 156.65 115.58 157.18 115.64 C 156.49 117.13 155.52 118.47 154.93 120.00 C 157.31 120.12 157.68 117.41 159.05 116.05 C 160.21 115.31 161.43 114.68 162.59 113.95 C 160.32 112.01 158.90 114.25 157.16 115.39 C 157.22 114.71 157.33 113.34 157.39 112.66 C 156.04 113.01 155.64 114.35 155.06 115.41 M 215.99 124.18 C 213.80 122.48 209.79 121.74 208.06 124.45 C 210.42 125.01 214.25 122.58 215.32 125.68 C 213.53 125.80 211.74 125.93 209.96 126.08 C 209.69 127.33 209.43 128.58 209.17 129.83 C 210.64 127.96 212.55 126.71 215.03 127.27 C 215.38 126.83 216.08 125.95 216.43 125.51 C 219.52 125.62 222.47 124.59 225.15 123.12 C 225.30 122.63 225.60 121.65 225.75 121.16 C 222.59 122.41 219.54 124.52 215.99 124.18 M 190.08 123.49 C 189.58 125.11 190.16 125.63 191.84 125.05 C 192.28 123.45 191.70 122.93 190.08 123.49 M 56.11 160.47 C 55.71 161.91 56.19 162.42 57.57 161.98 C 57.95 160.56 57.46 160.06 56.11 160.47 M 171.98 170.48 C 172.15 168.59 172.41 166.68 172.08 164.80 C 169.23 163.83 169.21 170.36 171.98 170.48 M 170.78 179.13 C 170.72 179.24 170.60 179.46 170.55 179.57 C 170.51 180.18 170.45 181.42 170.42 182.04 C 169.22 183.47 169.42 184.38 171.00 184.76 L 171.70 184.73 C 171.70 182.77 171.66 180.82 171.57 178.87 C 173.29 176.79 169.16 177.23 170.78 179.13 M 165.67 185.66 C 165.27 188.06 163.96 190.44 161.85 191.73 C 161.77 191.78 161.61 191.89 161.53 191.95 C 161.88 195.13 165.11 191.91 164.98 190.10 C 166.67 189.34 168.65 185.29 165.75 185.40 C 165.73 185.47 165.69 185.60 165.67 185.66 M 168.39 190.18 C 168.35 190.99 168.27 192.60 168.23 193.41 C 167.88 193.61 167.18 194.02 166.83 194.22 L 167.07 195.10 C 166.44 195.20 165.19 195.39 164.57 195.48 C 164.00 196.65 164.12 197.78 164.93 198.86 C 163.38 199.86 161.90 201.27 161.60 203.17 C 161.21 204.87 161.55 206.92 160.02 208.12 L 159.56 209.05 C 160.86 208.88 161.64 208.23 161.90 207.07 C 164.18 203.64 166.25 199.99 167.62 196.09 C 169.14 194.68 168.68 192.17 169.69 190.38 C 169.36 190.33 168.71 190.23 168.39 190.18 M 160.02 208.12 C 159.32 207.42 159.32 207.42 160.02 208.12 M 132.85 210.34 C 131.76 208.73 127.44 210.58 129.91 211.91 C 133.49 211.43 137.37 212.45 140.75 210.97 L 141.21 210.02 C 140.41 210.12 138.81 210.34 138.00 210.45 C 137.05 209.81 136.10 209.18 135.15 208.55 C 134.58 209.00 133.42 209.89 132.85 210.34 M 159.37 209.55 C 159.42 209.42 159.51 209.17 159.56 209.05 C 159.51 209.17 159.42 209.42 159.37 209.55 M 150.45 210.07 L 150.44 210.92 C 150.59 210.99 150.90 211.12 151.06 211.19 L 151.91 210.69 L 152.42 210.72 C 152.31 210.55 152.11 210.20 152.00 210.03 C 151.61 210.04 150.84 210.06 150.45 210.07 M 152.42 210.72 L 153.18 212.00 C 155.38 212.08 159.26 212.75 159.37 209.55 C 158.15 209.82 157.04 210.31 156.01 211.01 C 154.94 210.13 153.64 210.34 152.42 210.72 Z" />
<path fill="#84847a" opacity="1.00" d=" M 194.92 163.49 C 195.10 163.63 195.46 163.89 195.65 164.03 L 195.00 164.06 L 194.92 163.49 Z" />
<path fill="#84847a" opacity="1.00" d=" M 194.52 164.11 L 195.00 164.06 C 194.91 164.21 194.74 164.49 194.66 164.63 L 194.52 164.11 Z" />
<path fill="#84847a" opacity="1.00" d=" M 193.94 168.89 C 194.07 168.72 194.34 168.39 194.48 168.22 C 194.34 168.39 194.07 168.72 193.94 168.89 Z" />
<path fill="#84847a" opacity="1.00" d=" M 192.97 169.73 C 193.21 169.52 193.69 169.10 193.94 168.89 C 193.69 169.10 193.21 169.52 192.97 169.73 Z" />
</g>
<g id="#080300ff">
<path fill="#080300" opacity="1.00" d=" M 248.94 0.00 L 251.38 0.00 C 252.57 0.96 253.76 1.93 254.98 2.87 C 256.00 1.89 257.04 0.94 258.09 -0.00 L 262.27 0.00 C 260.09 0.97 257.99 2.13 255.92 3.31 C 263.79 9.75 273.98 12.28 283.73 14.39 C 291.47 14.94 299.28 14.49 307.06 14.63 C 309.41 14.88 311.25 13.27 313.00 11.95 L 313.00 13.96 C 309.97 16.72 305.75 15.99 302.02 15.94 C 293.03 15.60 283.75 16.99 275.08 13.89 C 270.52 12.08 265.68 10.93 261.34 8.61 C 257.14 5.79 252.27 3.95 248.94 0.00 Z" />
<path fill="#080300" opacity="1.00" d=" M 101.37 63.52 C 105.94 64.52 110.05 67.32 112.94 70.97 C 112.84 71.99 112.72 73.13 111.83 73.80 C 111.32 68.86 105.87 66.70 101.84 65.04 C 101.72 64.66 101.49 63.90 101.37 63.52 Z" />
<path fill="#080300" opacity="1.00" d=" M 118.26 81.16 C 120.68 82.20 122.44 84.28 124.62 85.72 C 124.99 87.24 122.87 86.46 122.35 85.79 C 120.95 84.34 118.35 83.41 118.26 81.16 Z" />
<path fill="#080300" opacity="1.00" d=" M 145.41 95.37 C 146.66 95.78 147.92 96.14 149.22 96.41 C 148.95 96.76 148.40 97.47 148.13 97.83 C 147.94 98.62 147.56 100.21 147.37 101.00 C 145.35 99.86 144.96 97.46 145.41 95.37 Z" />
<path fill="#080300" opacity="1.00" d=" M 150.72 97.27 C 150.85 96.21 151.65 95.52 152.41 94.87 C 152.62 96.94 154.94 96.83 156.20 97.90 C 155.15 97.60 153.06 97.02 152.01 96.72 C 152.94 100.57 151.63 104.56 152.06 108.49 L 150.55 108.45 C 150.64 107.03 150.73 105.62 150.82 104.21 C 150.28 104.42 149.21 104.83 148.67 105.04 C 149.00 102.70 150.82 100.79 150.66 98.37 C 150.67 98.09 150.71 97.54 150.72 97.27 Z" />
<path fill="#080300" opacity="1.00" d=" M 158.38 103.09 C 158.91 103.16 159.98 103.30 160.52 103.37 C 160.64 104.48 160.76 105.59 160.88 106.70 C 160.20 106.56 158.83 106.28 158.15 106.14 C 158.19 106.80 158.28 108.14 158.32 108.80 C 155.48 108.01 157.80 104.80 158.38 103.09 Z" />
<path fill="#080300" opacity="1.00" d=" M 119.33 140.40 C 123.66 140.16 128.21 139.79 132.32 141.48 C 135.05 144.48 138.51 146.91 140.37 150.62 C 143.95 157.41 145.47 165.67 143.00 173.09 C 142.22 174.44 141.35 175.77 139.93 176.51 C 136.30 176.23 132.57 176.76 129.04 175.64 C 125.75 174.74 122.89 172.82 119.98 171.11 C 114.45 168.41 112.98 161.82 111.43 156.40 C 110.50 153.98 111.17 151.41 111.72 148.98 C 112.34 144.91 116.31 142.64 119.33 140.40 M 122.38 142.38 C 118.90 142.87 115.78 144.99 114.25 148.17 C 113.48 154.76 115.00 161.69 118.91 167.09 C 123.83 172.78 131.75 175.16 139.10 174.48 C 144.00 170.14 142.40 162.58 140.95 156.94 C 140.12 152.22 136.42 148.98 133.62 145.39 C 130.28 143.49 126.34 141.32 122.38 142.38 Z" />
<path fill="#080300" opacity="1.00" d=" M 194.33 163.42 L 194.92 163.49 L 195.00 164.06 L 194.52 164.11 L 194.33 163.42 Z" />
<path fill="#080300" opacity="1.00" d=" M 165.75 185.40 C 168.65 185.29 166.67 189.34 164.98 190.10 C 165.11 191.91 161.88 195.13 161.53 191.95 C 161.61 191.89 161.77 191.78 161.85 191.73 C 163.96 190.44 165.27 188.06 165.67 185.66 C 165.69 185.60 165.73 185.47 165.75 185.40 Z" />
<path fill="#080300" opacity="1.00" d=" M 167.07 195.10 L 167.95 194.96 L 167.62 196.09 C 166.25 199.99 164.18 203.64 161.90 207.07 C 162.38 204.16 163.47 201.41 164.93 198.86 C 165.67 197.62 166.38 196.37 167.07 195.10 Z" />
</g>
<g id="#837769ff">
<path fill="#837769" opacity="1.00" d=" M 251.38 0.00 L 258.09 0.00 C 257.04 0.94 256.00 1.89 254.98 2.87 C 253.76 1.93 252.57 0.96 251.38 0.00 Z" />
</g>
<g id="#89897fff">
<path fill="#89897f" opacity="1.00" d=" M 125.40 3.23 C 127.47 1.27 130.29 0.85 133.04 0.99 C 163.18 1.31 193.33 0.70 223.46 1.25 C 224.86 4.66 227.76 7.64 227.69 11.51 C 224.44 11.58 221.19 11.42 217.96 11.63 C 210.72 12.97 204.92 17.76 199.68 22.62 C 188.77 34.15 179.12 46.78 168.70 58.74 C 161.68 66.97 154.38 75.14 145.47 81.39 C 144.42 82.11 143.26 82.63 142.08 83.10 C 141.75 82.83 141.09 82.29 140.76 82.02 C 141.50 81.39 142.24 80.76 142.98 80.14 C 142.38 79.47 141.77 78.80 141.17 78.13 C 141.80 78.05 143.07 77.91 143.70 77.83 C 140.50 75.61 139.94 69.80 135.27 70.27 C 135.47 69.37 135.67 68.47 135.88 67.57 C 135.49 67.52 134.72 67.42 134.33 67.37 C 133.64 65.42 132.87 63.46 131.35 62.01 C 131.49 63.24 131.66 64.46 131.77 65.70 C 131.48 66.11 130.90 66.92 130.61 67.33 C 130.62 66.25 130.16 65.52 129.23 65.14 C 127.41 65.62 125.59 66.12 123.75 66.56 C 123.64 70.12 121.63 73.23 118.64 75.08 C 119.03 76.32 119.41 77.57 119.77 78.82 C 121.92 80.91 124.09 82.99 126.16 85.16 C 126.45 86.67 127.03 88.08 127.85 89.38 C 126.76 89.36 125.59 89.07 124.59 89.63 C 125.67 94.26 126.38 99.15 129.19 103.15 C 125.84 104.13 123.51 107.09 120.08 107.80 C 116.62 111.70 113.59 116.12 109.27 119.16 C 105.06 121.99 102.64 126.59 99.18 130.18 C 96.55 133.30 94.15 136.61 91.59 139.79 C 88.34 143.91 87.24 149.17 84.91 153.79 C 84.45 152.87 83.98 151.95 83.52 151.03 C 82.57 152.37 81.62 153.71 80.68 155.05 C 78.50 155.60 75.90 158.10 73.90 156.03 C 69.80 152.85 73.76 146.78 71.08 142.89 C 70.32 141.60 69.06 140.32 69.64 138.69 C 70.84 133.56 69.36 128.29 66.54 123.96 C 68.88 120.41 67.87 115.97 68.07 111.97 C 68.52 104.40 62.90 98.63 59.39 92.49 C 60.39 84.70 59.98 76.78 59.84 68.95 C 57.07 64.05 58.23 58.31 58.08 52.94 C 57.64 49.88 60.60 48.31 62.17 46.17 C 63.74 44.43 64.50 41.75 66.99 41.07 C 76.56 37.54 84.73 31.15 94.01 27.00 C 97.49 25.81 98.66 21.79 99.60 18.62 C 99.94 14.75 100.34 10.85 102.49 7.49 C 105.64 7.79 108.67 6.83 111.55 5.68 C 111.80 4.66 112.04 3.63 112.29 2.61 C 113.70 2.54 115.12 2.47 116.54 2.40 C 116.79 3.40 117.05 4.39 117.31 5.39 C 118.26 5.55 119.20 5.71 120.15 5.86 C 120.51 7.45 120.86 9.03 121.21 10.62 C 124.96 9.13 128.23 4.70 132.65 6.46 C 137.46 8.20 142.24 10.06 146.96 12.05 C 148.10 12.66 149.37 12.67 150.55 12.14 C 146.23 9.21 141.15 7.74 136.48 5.49 C 133.02 3.77 129.06 4.19 125.40 3.23 M 123.35 55.13 C 123.58 56.63 123.73 58.13 123.68 59.65 C 124.14 59.55 125.07 59.37 125.54 59.27 C 125.23 57.74 125.73 54.93 123.35 55.13 M 101.37 63.52 C 101.49 63.90 101.72 64.66 101.84 65.04 C 105.87 66.70 111.32 68.86 111.83 73.80 C 112.72 73.13 112.84 71.99 112.94 70.97 C 110.05 67.32 105.94 64.52 101.37 63.52 M 118.26 81.16 C 118.35 83.41 120.95 84.34 122.35 85.79 C 122.87 86.46 124.99 87.24 124.62 85.72 C 122.44 84.28 120.68 82.20 118.26 81.16 Z" />
<path fill="#89897f" opacity="1.00" d=" M 227.66 13.43 C 228.47 13.03 229.28 12.62 230.09 12.20 C 232.69 14.53 235.45 16.71 238.54 18.36 C 243.77 20.97 246.74 26.50 252.07 28.99 C 257.54 32.16 264.04 30.74 270.03 31.08 C 273.92 31.65 277.05 28.44 280.93 28.91 C 286.29 28.34 292.43 30.63 297.16 27.29 C 298.76 28.12 300.22 29.44 302.05 29.71 C 305.34 29.44 308.60 28.90 311.91 28.82 C 312.25 25.40 311.97 21.98 311.67 18.58 C 312.00 18.31 312.67 17.76 313.00 17.49 L 313.00 69.63 C 312.43 68.14 311.82 66.63 311.94 65.01 C 311.97 59.03 312.14 53.06 311.76 47.09 C 306.66 47.22 302.36 50.37 297.24 50.43 C 294.52 52.11 291.77 53.78 288.64 54.59 C 287.65 55.93 286.78 57.37 285.55 58.51 C 283.91 59.19 282.06 59.06 280.33 59.30 C 280.08 60.40 279.84 61.50 279.60 62.60 C 273.30 63.63 266.84 65.67 262.07 70.06 C 258.86 72.35 254.19 73.36 253.32 77.82 C 253.11 77.12 252.71 75.74 252.50 75.04 C 252.00 75.49 251.50 75.94 251.01 76.40 C 250.68 76.72 250.03 77.37 249.70 77.70 C 249.19 79.49 249.19 81.83 246.91 82.29 C 247.34 80.82 247.70 79.33 248.12 77.85 C 248.56 76.85 248.99 75.85 249.41 74.85 L 248.54 73.55 C 248.41 73.43 248.13 73.18 248.00 73.06 C 247.84 72.96 247.53 72.76 247.37 72.65 C 246.34 71.11 245.63 69.00 243.33 69.24 C 243.34 70.02 243.34 71.58 243.35 72.36 C 239.94 62.02 232.74 53.69 227.74 44.17 C 223.93 38.71 218.94 34.21 215.08 28.79 C 213.79 26.86 211.96 25.41 210.18 23.96 C 214.94 18.89 221.21 15.75 227.66 13.43 Z" />
<path fill="#89897f" opacity="1.00" d=" M 244.93 73.74 C 245.57 73.58 246.86 73.25 247.50 73.09 L 247.51 73.67 L 248.08 73.65 C 244.88 79.56 241.53 85.39 238.09 91.16 L 237.32 90.67 C 239.74 86.89 241.61 82.80 243.37 78.68 C 243.42 78.57 243.51 78.33 243.55 78.22 C 244.05 76.74 244.50 75.24 244.93 73.74 Z" />
</g>
<g id="#010101ff">
<path fill="#010101" opacity="1.00" d=" M 199.68 22.62 C 204.92 17.76 210.72 12.97 217.96 11.63 C 221.19 11.42 224.44 11.58 227.69 11.51 C 227.68 11.99 227.66 12.95 227.66 13.43 C 221.21 15.75 214.94 18.89 210.18 23.96 C 211.96 25.41 213.79 26.86 215.08 28.79 C 218.94 34.21 223.93 38.71 227.74 44.17 C 232.74 53.69 239.94 62.02 243.35 72.36 C 243.34 71.58 243.34 70.02 243.33 69.24 C 245.63 69.00 246.34 71.11 247.37 72.65 L 247.50 73.09 C 246.86 73.25 245.57 73.58 244.93 73.74 C 244.50 75.24 244.05 76.74 243.55 78.22 C 243.51 78.33 243.42 78.57 243.37 78.68 C 241.61 82.80 239.74 86.89 237.32 90.67 C 237.08 90.99 236.60 91.63 236.36 91.95 C 235.01 93.53 235.40 95.35 236.18 97.10 C 231.92 97.11 230.80 101.96 227.48 103.76 C 227.30 104.38 226.94 105.63 226.76 106.26 C 226.63 106.41 226.37 106.72 226.24 106.88 C 221.06 110.47 217.08 115.64 211.28 118.42 C 210.12 117.81 207.90 119.87 209.88 120.23 C 210.25 119.99 210.99 119.50 211.36 119.26 C 213.87 118.34 216.42 117.54 218.93 116.63 C 218.69 117.26 218.20 118.50 217.96 119.13 C 214.37 120.19 210.77 121.15 207.18 122.18 C 206.04 120.65 204.08 121.68 202.97 122.66 C 200.10 120.44 196.33 122.08 193.06 121.96 L 192.76 121.82 C 192.65 121.76 192.45 121.63 192.35 121.56 C 177.27 113.03 169.25 96.62 162.98 81.19 C 158.27 84.44 152.92 87.97 146.91 87.06 C 142.81 86.71 139.28 84.02 137.11 80.64 C 137.63 80.65 138.68 80.68 139.20 80.69 C 139.59 81.02 140.37 81.69 140.76 82.02 C 141.09 82.29 141.75 82.83 142.08 83.10 C 143.26 82.63 144.42 82.11 145.47 81.39 C 154.38 75.14 161.68 66.97 168.70 58.74 C 179.12 46.78 188.77 34.15 199.68 22.62 M 193.41 46.15 C 186.80 53.34 181.60 61.72 175.07 68.99 C 171.73 72.78 168.62 77.09 164.28 79.76 C 170.87 95.09 178.36 112.18 193.95 120.26 C 198.35 119.23 203.09 120.40 207.23 118.17 C 221.36 112.12 230.77 98.91 237.92 85.83 C 239.88 82.09 241.94 78.28 242.77 74.10 C 241.54 72.22 240.37 70.30 239.99 68.04 C 239.04 63.86 235.48 60.98 234.22 56.96 C 230.07 52.57 228.27 46.54 224.32 41.98 C 222.45 38.55 218.39 36.72 217.14 32.98 C 213.72 31.36 213.35 25.93 209.00 26.11 C 204.27 33.10 200.23 40.90 193.41 46.15 Z" />
<path fill="#010101" opacity="1.00" d=" M 298.14 69.23 C 299.27 67.80 299.82 65.53 301.80 65.05 C 301.98 68.91 298.53 72.00 298.24 75.86 C 298.01 80.10 298.11 84.35 298.08 88.59 C 303.30 85.88 307.94 82.24 313.00 79.26 L 313.00 81.48 C 308.06 84.76 303.01 87.87 298.08 91.15 C 298.12 93.91 298.22 96.66 298.33 99.41 L 298.32 99.50 C 298.13 99.95 297.74 100.83 297.55 101.27 C 297.22 100.67 296.56 99.47 296.23 98.87 C 296.26 96.66 296.19 94.45 296.18 92.24 C 294.98 93.23 293.79 94.23 292.58 95.20 C 292.48 95.27 292.30 95.40 292.21 95.47 C 291.57 95.93 290.28 96.83 289.64 97.29 C 289.54 97.36 289.35 97.50 289.25 97.57 C 287.66 98.74 286.12 99.97 284.62 101.24 C 284.53 101.32 284.35 101.46 284.26 101.54 C 282.61 102.77 281.03 104.10 279.55 105.52 C 279.42 105.63 279.18 105.86 279.05 105.98 C 278.91 106.11 278.63 106.36 278.49 106.49 C 265.77 118.06 258.15 133.84 250.09 148.73 C 249.59 148.67 248.60 148.56 248.10 148.50 C 251.80 141.43 255.55 134.37 259.73 127.57 C 264.89 118.88 270.93 110.62 278.39 103.76 C 278.48 103.69 278.66 103.54 278.75 103.47 C 283.22 99.79 287.69 96.13 292.38 92.74 C 292.48 92.68 292.67 92.55 292.77 92.48 C 293.91 91.74 295.08 91.03 296.24 90.31 C 296.17 86.29 296.41 82.26 295.96 78.25 C 296.48 75.79 297.05 73.33 297.71 70.90 C 290.01 73.66 282.11 76.03 274.88 79.93 C 271.15 81.25 267.00 82.37 264.33 85.51 C 264.24 85.60 264.05 85.78 263.96 85.87 C 263.86 85.94 263.66 86.08 263.55 86.15 C 261.75 86.65 260.20 87.60 259.08 89.09 C 256.31 91.33 253.78 93.88 251.67 96.75 C 248.78 100.79 244.56 103.59 241.42 107.42 C 236.61 112.58 234.17 119.38 229.91 124.96 C 226.70 129.10 225.78 134.48 222.73 138.72 C 220.51 141.93 218.87 145.50 217.40 149.11 C 215.43 153.50 215.66 158.44 214.22 162.98 C 220.29 166.77 228.94 171.43 228.46 179.70 C 228.95 187.44 227.34 195.11 227.60 202.83 C 222.74 203.20 217.85 203.10 213.07 204.15 C 207.09 204.57 201.06 204.34 195.07 204.23 L 194.39 203.55 C 190.73 200.61 190.01 195.84 189.16 191.52 C 188.75 192.29 187.92 193.84 187.51 194.61 C 187.42 194.29 187.26 193.67 187.18 193.35 C 178.51 193.98 172.42 200.93 167.51 207.38 C 165.14 211.99 163.18 216.84 160.04 221.02 L 159.59 221.63 L 158.90 222.47 C 159.00 221.89 159.20 220.71 159.30 220.12 C 161.08 216.79 163.08 213.57 164.59 210.10 C 166.87 204.90 171.01 200.88 175.01 196.99 C 179.07 193.35 184.52 192.14 189.69 190.98 C 189.93 187.45 189.01 183.49 191.26 180.43 C 193.42 177.23 194.90 173.65 196.89 170.35 C 196.95 170.28 197.07 170.14 197.14 170.07 C 197.69 169.64 198.81 168.76 199.37 168.32 C 199.51 168.21 199.80 167.97 199.94 167.85 C 200.07 167.74 200.33 167.51 200.46 167.40 C 203.59 163.92 208.07 162.71 212.61 163.19 C 213.36 159.05 213.90 154.85 214.98 150.77 C 217.48 143.62 221.28 137.01 224.07 129.98 C 228.32 124.28 231.64 117.86 234.28 111.27 C 234.40 111.09 234.64 110.73 234.75 110.55 C 234.93 110.29 235.28 109.75 235.46 109.48 L 236.28 108.65 C 236.43 108.50 236.74 108.18 236.89 108.02 C 237.11 107.80 237.54 107.36 237.76 107.13 C 237.86 106.99 238.07 106.70 238.18 106.55 C 239.30 104.77 240.17 102.86 241.02 100.94 C 239.76 102.30 238.45 103.62 236.98 104.76 C 236.29 104.28 234.90 103.34 234.21 102.86 C 236.41 103.37 238.47 102.25 239.18 100.14 C 239.61 100.13 240.45 100.11 240.87 100.10 C 241.32 100.06 242.22 99.96 242.66 99.92 L 243.05 99.16 C 246.40 94.75 250.99 91.34 256.02 89.05 C 259.73 86.02 263.54 83.12 267.24 80.06 C 277.09 75.31 287.76 72.63 298.14 69.23 M 203.90 173.76 C 201.51 176.44 199.49 179.57 198.62 183.08 C 198.47 186.24 198.65 189.41 198.54 192.58 C 199.17 192.52 200.43 192.40 201.06 192.35 C 203.44 188.38 206.33 184.77 209.28 181.22 C 209.25 179.45 209.24 177.69 209.21 175.93 C 208.97 175.25 208.50 173.89 208.26 173.21 C 206.78 173.22 205.32 173.37 203.90 173.76 Z" />
<path fill="#010101" opacity="1.00" d=" M 190.82 72.85 C 194.58 70.24 199.88 70.82 203.33 73.72 C 207.28 76.85 211.84 80.56 212.13 86.01 C 213.15 89.51 210.56 92.84 207.84 94.74 C 205.91 94.68 203.97 94.79 202.04 94.66 C 200.08 93.78 198.16 92.82 196.18 91.98 C 193.75 90.42 192.30 87.80 190.46 85.64 C 190.43 85.01 190.38 83.73 190.36 83.10 C 187.96 79.93 189.81 76.14 190.82 72.85 Z" />
<path fill="#010101" opacity="1.00" d=" M 247.50 73.09 L 248.00 73.06 L 248.08 73.65 L 247.51 73.67 L 247.50 73.09 Z" />
<path fill="#010101" opacity="1.00" d=" M 248.08 73.65 L 248.54 73.55 L 249.41 74.85 C 248.99 75.85 248.56 76.85 248.12 77.85 C 244.22 83.15 242.24 89.88 237.09 94.17 C 237.08 93.76 237.05 92.92 237.04 92.51 C 237.30 92.17 237.83 91.50 238.09 91.16 C 241.53 85.39 244.88 79.56 248.08 73.65 Z" />
<path fill="#010101" opacity="1.00" d=" M 233.13 99.30 C 234.32 99.79 235.52 99.49 236.71 99.17 C 236.14 99.79 235.01 101.02 234.45 101.63 C 234.30 101.80 234.01 102.13 233.86 102.29 C 233.67 102.47 233.29 102.83 233.10 103.02 C 232.94 103.14 232.64 103.39 232.49 103.52 C 231.14 104.58 229.79 105.73 229.33 107.45 L 229.07 107.96 C 228.87 108.19 228.46 108.65 228.26 108.89 C 227.75 108.55 226.72 107.87 226.21 107.54 L 226.24 106.88 C 226.37 106.72 226.63 106.41 226.76 106.26 C 229.28 104.42 232.48 102.63 233.13 99.30 Z" />
<path fill="#010101" opacity="1.00" d=" M 233.96 109.24 L 234.57 109.29 L 234.67 109.91 L 234.03 109.95 L 233.96 109.24 Z" />
<path fill="#010101" opacity="1.00" d=" M 226.11 109.74 L 226.86 110.00 C 226.79 110.59 226.65 111.77 226.59 112.36 C 226.56 112.39 226.52 112.46 226.50 112.50 C 224.54 114.00 222.60 115.52 220.70 117.11 C 221.86 114.49 223.63 112.23 225.65 110.22 C 225.77 110.10 226.00 109.86 226.11 109.74 Z" />
<path fill="#010101" opacity="1.00" d=" M 232.33 110.02 L 233.20 109.87 L 234.03 109.95 L 234.20 110.66 C 233.70 110.68 232.68 110.72 232.18 110.73 L 232.33 110.02 Z" />
<path fill="#010101" opacity="1.00" d=" M 230.11 111.39 L 231.13 110.85 L 232.18 110.73 C 230.84 113.04 228.57 114.54 226.64 116.30 C 226.55 116.38 226.37 116.53 226.28 116.61 C 224.03 118.36 220.93 122.16 217.88 120.15 C 222.50 118.55 225.92 114.98 229.49 111.80 C 229.64 111.70 229.95 111.49 230.11 111.39 Z" />
<path fill="#010101" opacity="1.00" d=" M 193.57 122.78 C 195.29 123.14 197.05 123.28 198.81 123.30 C 199.31 123.45 200.31 123.75 200.80 123.90 C 200.59 124.45 200.17 125.55 199.96 126.10 C 199.58 126.01 198.82 125.84 198.44 125.75 C 197.89 125.48 196.79 124.93 196.24 124.65 C 195.71 124.41 194.64 123.93 194.10 123.69 L 193.57 122.78 Z" />
<path fill="#010101" opacity="1.00" d=" M 121.26 145.50 C 124.78 144.97 128.86 144.63 131.60 147.39 C 135.80 152.52 139.51 158.32 140.81 164.91 C 141.22 167.43 139.34 169.47 138.57 171.73 C 135.76 172.65 132.90 171.67 130.08 171.36 C 126.88 170.99 124.64 168.37 121.80 167.11 C 119.50 163.32 117.16 159.40 116.61 154.92 C 116.79 152.83 117.38 150.70 116.38 148.71 C 118.20 147.94 119.69 146.66 121.26 145.50 Z" />
<path fill="#010101" opacity="1.00" d=" M 277.47 193.64 C 277.70 193.26 278.17 192.51 278.40 192.14 L 278.89 192.03 L 280.24 192.55 C 281.35 193.06 282.44 193.60 283.59 194.00 C 279.08 192.44 277.26 197.40 274.62 199.85 C 271.51 204.86 267.16 208.94 263.84 213.80 C 260.40 218.02 256.07 221.42 252.68 225.70 C 252.38 227.63 250.10 227.78 248.74 228.73 C 247.56 229.65 246.41 230.89 244.75 230.58 C 244.39 230.59 243.66 230.61 243.30 230.63 C 243.63 229.45 243.96 228.27 244.32 227.11 C 244.51 226.65 244.90 225.74 245.09 225.29 C 244.96 223.91 245.40 222.88 246.38 222.18 C 246.53 220.38 246.68 218.58 246.86 216.79 C 245.95 216.12 245.05 215.45 244.16 214.77 C 241.92 212.83 238.34 211.83 237.10 209.11 C 238.49 209.57 239.82 210.17 241.17 210.76 C 243.40 212.82 245.95 215.44 249.02 215.72 C 252.01 213.50 254.08 210.28 257.21 208.20 C 259.19 205.31 262.97 204.70 265.14 202.00 C 268.76 198.64 272.68 195.14 277.47 193.64 M 263.95 204.88 C 258.46 208.20 254.06 212.99 249.65 217.57 C 248.57 221.30 245.89 224.57 245.48 228.38 C 250.69 227.21 253.22 222.09 257.02 218.85 C 262.08 214.56 265.27 208.63 269.83 203.88 C 271.16 201.94 273.54 200.24 273.44 197.69 C 269.56 199.05 267.12 202.49 263.95 204.88 Z" />
<path fill="#010101" opacity="1.00" d=" M 273.24 217.20 C 273.24 215.38 275.02 214.41 276.61 214.20 C 276.52 214.53 276.34 215.19 276.25 215.52 C 275.06 215.83 274.64 217.12 273.89 217.96 C 270.55 222.59 265.42 225.46 261.17 229.17 C 259.60 230.51 258.10 231.97 256.19 232.82 L 256.69 233.14 C 255.69 233.19 254.68 233.24 253.68 233.28 L 253.69 232.26 L 252.48 232.46 C 252.45 232.27 252.39 231.88 252.36 231.68 C 254.10 231.64 255.85 231.61 257.60 231.61 L 257.31 230.53 C 259.69 230.42 260.70 227.75 262.55 226.58 C 266.42 223.81 269.78 220.31 273.24 217.20 Z" />
</g>
<g id="#f7d550ff">
<path fill="#f7d550" opacity="1.00" d=" M 193.41 46.15 C 200.23 40.90 204.27 33.10 209.00 26.11 C 213.35 25.93 213.72 31.36 217.14 32.98 C 218.39 36.72 222.45 38.55 224.32 41.98 C 228.27 46.54 230.07 52.57 234.22 56.96 C 235.48 60.98 239.04 63.86 239.99 68.04 C 240.37 70.30 241.54 72.22 242.77 74.10 C 241.94 78.28 239.88 82.09 237.92 85.83 C 230.77 98.91 221.36 112.12 207.23 118.17 C 203.09 120.40 198.35 119.23 193.95 120.26 C 178.36 112.18 170.87 95.09 164.28 79.76 C 168.62 77.09 171.73 72.78 175.07 68.99 C 181.60 61.72 186.80 53.34 193.41 46.15 M 185.65 70.71 C 183.59 78.56 185.89 87.61 191.66 93.36 C 195.54 97.83 201.51 99.39 207.17 99.88 C 208.58 99.19 210.04 98.53 211.63 98.39 C 214.41 96.06 217.14 92.98 216.64 89.05 C 217.37 83.43 213.90 78.57 210.44 74.54 C 205.50 70.04 199.53 66.53 192.87 65.59 C 189.72 66.08 187.28 68.06 185.65 70.71 Z" />
<path fill="#f7d550" opacity="1.00" d=" M 128.08 119.10 C 128.96 118.00 130.47 118.58 131.66 118.43 C 132.70 119.97 133.51 121.84 135.28 122.69 C 139.39 125.17 141.92 129.39 145.30 132.68 C 149.75 138.23 154.73 143.37 158.67 149.32 C 161.20 153.13 164.37 157.17 163.72 162.05 C 163.37 165.98 164.45 170.22 162.94 173.96 C 162.86 171.21 163.43 167.89 161.07 165.87 C 158.81 162.89 154.72 164.17 151.54 164.20 C 151.31 164.76 150.86 165.87 150.63 166.43 C 149.89 166.37 149.15 166.31 148.41 166.25 C 148.54 167.16 148.67 168.07 148.81 168.98 C 147.20 170.77 145.55 172.76 143.00 173.09 C 145.47 165.67 143.95 157.41 140.37 150.62 C 138.51 146.91 135.05 144.48 132.32 141.48 C 128.21 139.79 123.66 140.16 119.33 140.40 C 116.31 142.64 112.34 144.91 111.72 148.98 C 111.17 151.41 110.50 153.98 111.43 156.40 C 112.98 161.82 114.45 168.41 119.98 171.11 C 122.89 172.82 125.75 174.74 129.04 175.64 C 132.57 176.76 136.30 176.23 139.93 176.51 C 140.35 176.63 141.21 176.85 141.64 176.97 C 140.22 178.96 139.52 181.98 136.92 182.72 C 132.56 184.20 128.05 185.87 123.38 185.65 C 120.32 184.67 119.09 181.25 116.82 179.21 C 114.17 176.01 110.00 174.83 106.96 172.16 C 105.48 169.49 105.00 166.33 103.29 163.78 C 100.73 161.36 97.88 159.27 95.29 156.89 C 98.10 152.59 101.84 149.00 104.63 144.70 C 108.09 140.71 110.19 135.69 113.98 131.96 C 116.69 129.33 119.31 126.59 122.01 123.95 C 124.12 122.43 126.29 121.00 128.08 119.10 M 101.42 156.14 C 101.58 159.43 104.44 154.58 101.42 156.14 Z" />
</g>
<g id="#5b5b51ff">
<path fill="#5b5b51" opacity="1.00" d=" M 29.15 29.88 C 29.60 28.76 30.63 28.08 31.83 28.09 L 32.11 29.02 C 31.57 29.34 30.48 29.97 29.94 30.29 L 29.15 29.88 Z" />
<path fill="#5b5b51" opacity="1.00" d=" M 26.68 30.76 C 27.09 30.70 27.90 30.56 28.31 30.50 L 28.39 31.40 C 27.98 31.46 27.17 31.58 26.76 31.64 L 26.68 30.76 Z" />
<path fill="#5b5b51" opacity="1.00" d=" M 24.23 32.41 L 25.03 31.84 L 25.92 32.20 C 25.53 32.47 24.75 33.01 24.36 33.28 L 24.23 32.41 Z" />
<path fill="#5b5b51" opacity="1.00" d=" M 21.85 34.22 C 21.49 34.59 21.49 34.59 21.85 34.22 Z" />
<path fill="#5b5b51" opacity="1.00" d=" M 166.83 194.22 C 167.18 194.02 167.88 193.61 168.23 193.41 C 168.16 193.80 168.02 194.57 167.95 194.96 L 167.07 195.10 L 166.83 194.22 Z" />
<path fill="#5b5b51" opacity="1.00" d=" M 164.57 195.48 C 165.19 195.39 166.44 195.20 167.07 195.10 C 166.38 196.37 165.67 197.62 164.93 198.86 C 164.12 197.78 164.00 196.65 164.57 195.48 Z" />
<path fill="#5b5b51" opacity="1.00" d=" M 161.60 203.17 C 161.90 201.27 163.38 199.86 164.93 198.86 C 163.47 201.41 162.38 204.16 161.90 207.07 C 161.64 208.23 160.86 208.88 159.56 209.05 L 160.02 208.12 C 161.55 206.92 161.21 204.87 161.60 203.17 Z" />
<path fill="#5b5b51" opacity="1.00" d=" M 153.29 203.88 L 153.71 203.76 C 153.60 205.72 152.75 207.92 150.45 207.90 L 150.33 207.12 C 150.70 205.59 152.13 204.76 153.29 203.88 Z" />
<path fill="#5b5b51" opacity="1.00" d=" M 141.55 206.61 C 141.78 206.41 142.25 206.01 142.48 205.81 C 143.03 206.93 143.29 209.39 141.42 209.29 C 141.46 208.62 141.52 207.28 141.55 206.61 Z" />
<path fill="#5b5b51" opacity="1.00" d=" M 160.02 208.12 C 159.32 207.42 159.32 207.42 160.02 208.12 Z" />
<path fill="#5b5b51" opacity="1.00" d=" M 159.37 209.55 C 159.42 209.42 159.51 209.17 159.56 209.05 C 159.51 209.17 159.42 209.42 159.37 209.55 Z" />
<path fill="#5b5b51" opacity="1.00" d=" M 129.91 211.91 C 127.44 210.58 131.76 208.73 132.85 210.34 C 131.99 211.07 131.03 211.69 129.91 211.91 Z" />
<path fill="#5b5b51" opacity="1.00" d=" M 152.00 210.03 C 152.11 210.20 152.31 210.55 152.42 210.72 L 151.91 210.69 L 152.00 210.03 Z" />
<path fill="#5b5b51" opacity="1.00" d=" M 152.42 210.72 C 153.64 210.34 154.94 210.13 156.01 211.01 C 157.04 210.31 158.15 209.82 159.37 209.55 C 159.26 212.75 155.38 212.08 153.18 212.00 L 152.42 210.72 Z" />
<path fill="#5b5b51" opacity="1.00" d=" M 150.44 210.92 L 151.06 211.19 C 150.90 211.12 150.59 210.99 150.44 210.92 Z" />
</g>
<g id="#6b6965ff">
<path fill="#6b6965" opacity="1.00" d=" M 21.85 34.22 C 22.10 32.88 22.90 32.27 24.23 32.41 L 24.36 33.28 C 23.74 33.52 22.48 33.99 21.85 34.22 Z" />
</g>
<g id="#838379ff">
<path fill="#838379" opacity="1.00" d=" M 297.24 50.43 C 302.36 50.37 306.66 47.22 311.76 47.09 C 312.14 53.06 311.97 59.03 311.94 65.01 C 311.82 66.63 312.43 68.14 313.00 69.63 L 313.00 79.26 C 307.94 82.24 303.30 85.88 298.08 88.59 C 298.11 84.35 298.01 80.10 298.24 75.86 C 298.53 72.00 301.98 68.91 301.80 65.05 C 299.82 65.53 299.27 67.80 298.14 69.23 C 287.76 72.63 277.09 75.31 267.24 80.06 C 263.54 83.12 259.73 86.02 256.02 89.05 C 250.99 91.34 246.40 94.75 243.05 99.16 C 242.51 99.40 241.42 99.87 240.87 100.10 C 240.45 100.11 239.61 100.13 239.18 100.14 C 239.26 99.56 239.41 98.42 239.48 97.85 C 239.54 97.73 239.66 97.48 239.72 97.36 C 241.06 96.59 242.43 95.60 242.66 93.95 C 242.70 93.55 242.78 92.73 242.82 92.32 C 243.12 92.04 243.72 91.48 244.02 91.20 C 245.06 89.61 246.15 88.05 247.49 86.69 C 247.58 86.60 247.76 86.41 247.85 86.32 C 249.29 85.81 250.03 84.43 250.07 82.96 C 250.59 80.81 250.92 78.62 251.01 76.40 C 251.50 75.94 252.00 75.49 252.50 75.04 C 252.71 75.74 253.11 77.12 253.32 77.82 C 254.19 73.36 258.86 72.35 262.07 70.06 C 266.84 65.67 273.30 63.63 279.60 62.60 C 279.84 61.50 280.08 60.40 280.33 59.30 C 282.06 59.06 283.91 59.19 285.55 58.51 C 286.78 57.37 287.65 55.93 288.64 54.59 C 291.77 53.78 294.52 52.11 297.24 50.43 Z" />
<path fill="#838379" opacity="1.00" d=" M 237.09 94.17 C 242.24 89.88 244.22 83.15 248.12 77.85 C 247.70 79.33 247.34 80.82 246.91 82.29 C 245.87 85.56 243.04 87.91 242.20 91.21 L 242.01 92.00 C 241.98 92.42 241.92 93.27 241.90 93.69 C 240.32 94.24 239.50 95.73 239.26 97.30 C 237.41 97.56 236.68 100.58 239.18 100.14 C 238.47 102.25 236.41 103.37 234.21 102.86 L 233.56 102.85 L 233.86 102.29 C 234.01 102.13 234.30 101.80 234.45 101.63 C 235.01 101.02 236.14 99.79 236.71 99.17 C 235.52 99.49 234.32 99.79 233.13 99.30 C 232.48 102.63 229.28 104.42 226.76 106.26 C 226.94 105.63 227.30 104.38 227.48 103.76 C 230.80 101.96 231.92 97.11 236.18 97.10 C 235.40 95.35 235.01 93.53 236.36 91.95 L 237.04 92.51 C 237.05 92.92 237.08 93.76 237.09 94.17 Z" />
<path fill="#838379" opacity="1.00" d=" M 298.08 91.15 C 303.01 87.87 308.06 84.76 313.00 81.48 L 313.00 119.63 C 310.64 117.53 308.09 115.67 305.54 113.82 C 305.43 113.34 305.20 112.39 305.09 111.92 C 301.13 109.23 298.98 104.29 298.35 99.65 C 298.34 99.59 298.34 99.47 298.33 99.41 C 298.22 96.66 298.12 93.91 298.08 91.15 Z" />
<path fill="#838379" opacity="1.00" d=" M 292.38 92.74 C 292.48 92.68 292.67 92.55 292.77 92.48 C 292.67 92.55 292.48 92.68 292.38 92.74 Z" />
<path fill="#838379" opacity="1.00" d=" M 292.21 95.47 C 292.30 95.40 292.48 95.27 292.58 95.20 C 292.48 95.27 292.30 95.40 292.21 95.47 Z" />
<path fill="#838379" opacity="1.00" d=" M 289.25 97.57 C 289.35 97.50 289.54 97.36 289.64 97.29 C 289.54 97.36 289.35 97.50 289.25 97.57 Z" />
<path fill="#838379" opacity="1.00" d=" M 296.23 98.87 C 296.56 99.47 297.22 100.67 297.55 101.27 L 297.15 102.06 C 296.21 101.20 295.90 100.14 296.23 98.87 Z" />
<path fill="#838379" opacity="1.00" d=" M 284.26 101.54 C 284.35 101.46 284.53 101.32 284.62 101.24 C 284.53 101.32 284.35 101.46 284.26 101.54 Z" />
<path fill="#838379" opacity="1.00" d=" M 297.18 103.87 L 298.03 103.98 C 298.03 104.47 298.03 105.44 298.03 105.93 C 297.81 105.41 297.39 104.38 297.18 103.87 Z" />
<path fill="#838379" opacity="1.00" d=" M 279.05 105.98 C 279.18 105.86 279.42 105.63 279.55 105.52 C 279.42 105.63 279.18 105.86 279.05 105.98 Z" />
<path fill="#838379" opacity="1.00" d=" M 278.49 106.49 C 278.63 106.36 278.91 106.11 279.05 105.98 C 278.91 106.11 278.63 106.36 278.49 106.49 Z" />
</g>
<g id="#160a03ff">
<path fill="#160a03" opacity="1.00" d=" M 0.00 58.02 C 5.02 59.75 10.04 61.56 14.84 63.85 C 14.62 64.36 14.18 65.36 13.96 65.86 C 14.49 66.11 15.55 66.61 16.08 66.86 L 16.57 67.10 C 17.70 67.82 18.84 68.53 19.99 69.23 C 20.04 68.64 20.14 67.48 20.19 66.90 C 23.25 68.43 25.04 71.33 27.18 73.84 C 29.93 75.61 32.96 77.24 34.24 80.47 C 37.52 85.06 36.18 90.81 36.44 96.03 C 36.38 99.12 36.78 102.25 36.24 105.30 C 34.34 109.42 31.65 113.14 28.45 116.36 C 26.28 116.51 24.09 116.87 22.39 118.35 C 20.51 118.66 18.62 118.97 16.75 119.37 C 20.30 122.64 25.45 122.16 29.91 122.09 C 31.89 122.09 34.71 121.93 35.73 124.04 C 37.37 130.06 31.13 133.76 28.24 138.17 C 33.01 138.54 38.95 138.82 42.46 135.17 C 42.14 131.07 41.15 127.07 40.46 123.02 C 43.63 123.75 43.68 127.98 42.60 130.45 C 43.20 130.43 44.39 130.39 44.98 130.37 C 44.48 130.49 43.48 130.72 42.98 130.84 C 44.06 135.60 45.84 140.16 46.82 144.93 C 48.04 150.93 50.80 156.43 53.04 162.08 C 60.61 166.67 61.17 176.73 67.23 182.70 C 70.94 186.33 74.57 190.13 77.32 194.56 C 80.53 199.63 84.42 204.25 88.64 208.52 C 92.82 213.09 95.58 218.72 99.53 223.48 C 104.29 229.23 107.24 236.18 111.97 241.95 C 113.12 245.44 112.24 249.35 112.48 253.00 L 111.52 253.00 C 111.71 249.50 112.69 245.48 110.70 242.35 C 105.90 236.62 102.99 229.59 98.14 223.89 C 94.34 219.34 91.22 214.29 87.54 209.66 C 82.54 204.58 78.16 198.92 74.28 192.95 C 71.50 188.73 67.47 185.57 64.22 181.77 C 61.93 177.62 59.49 173.53 57.51 169.21 C 56.76 167.71 55.19 166.87 53.98 165.78 C 48.57 168.03 42.64 167.83 36.91 167.71 C 35.51 167.78 34.22 167.21 32.98 166.65 C 29.72 166.61 26.53 165.89 23.69 164.26 C 14.95 161.01 7.41 155.32 0.00 149.79 L 0.00 147.89 C 5.37 152.49 11.47 156.10 17.42 159.89 C 20.79 161.40 24.21 162.82 27.58 164.34 C 35.83 166.33 44.57 167.34 52.86 164.90 C 50.99 161.40 49.71 157.63 47.98 154.06 C 45.66 149.16 45.27 143.67 43.64 138.55 C 37.37 140.35 30.75 139.86 24.35 139.18 C 24.36 138.91 24.39 138.35 24.40 138.07 C 27.73 137.18 29.57 134.06 31.70 131.63 C 33.45 129.55 35.38 126.91 34.10 124.07 C 31.51 123.16 28.70 123.74 26.01 123.62 C 22.85 123.79 19.86 122.63 16.89 121.71 C 16.30 121.18 15.74 120.61 15.21 120.01 C 15.41 118.59 16.89 118.05 17.86 117.22 C 19.15 117.14 20.44 117.05 21.72 116.95 C 23.84 114.76 27.58 115.82 29.29 113.15 C 31.54 110.35 33.72 107.35 34.93 103.95 C 35.00 97.01 36.18 89.64 32.92 83.20 C 31.99 79.76 28.95 77.72 26.10 75.95 C 22.99 74.12 21.02 70.87 17.79 69.19 C 14.21 67.17 10.72 65.00 7.12 63.02 C 4.92 61.57 2.51 60.49 0.00 59.71 L 0.00 58.02 Z" />
</g>
<g id="#b19273ff">
<path fill="#b19273" opacity="1.00" d=" M 0.00 59.71 C 2.51 60.49 4.92 61.57 7.12 63.02 C 5.73 62.94 4.34 62.87 2.95 62.81 C 6.34 65.44 5.39 70.72 9.59 72.59 C 9.29 72.81 8.68 73.24 8.38 73.46 C 12.08 76.06 17.48 77.59 18.46 82.63 C 19.81 85.76 16.28 88.25 16.74 91.37 C 17.47 96.62 15.64 101.75 15.92 107.00 C 16.09 110.47 15.07 114.52 17.86 117.22 C 16.89 118.05 15.41 118.59 15.21 120.01 C 15.74 120.61 16.30 121.18 16.89 121.71 C 15.81 127.39 15.62 133.19 16.96 138.84 C 12.46 138.98 7.90 138.80 3.50 139.90 C 3.86 135.78 5.66 130.33 1.78 127.35 C 1.34 126.93 0.45 126.09 0.00 125.67 L 0.00 59.71 Z" />
</g>
<g id="#aa8c6fff">
<path fill="#aa8c6f" opacity="1.00" d=" M 2.95 62.81 C 4.34 62.87 5.73 62.94 7.12 63.02 C 10.72 65.00 14.21 67.17 17.79 69.19 C 21.02 70.87 22.99 74.12 26.10 75.95 C 28.95 77.72 31.99 79.76 32.92 83.20 C 36.18 89.64 35.00 97.01 34.93 103.95 C 33.72 107.35 31.54 110.35 29.29 113.15 C 27.58 115.82 23.84 114.76 21.72 116.95 C 20.44 117.05 19.15 117.14 17.86 117.22 C 15.07 114.52 16.09 110.47 15.92 107.00 C 15.64 101.75 17.47 96.62 16.74 91.37 C 16.28 88.25 19.81 85.76 18.46 82.63 C 17.48 77.59 12.08 76.06 8.38 73.46 C 8.68 73.24 9.29 72.81 9.59 72.59 C 5.39 70.72 6.34 65.44 2.95 62.81 Z" />
</g>
<g id="#374143ff">
<path fill="#374143" opacity="1.00" d=" M 14.84 63.85 C 16.66 64.80 18.47 65.77 20.19 66.90 C 20.14 67.48 20.04 68.64 19.99 69.23 C 18.84 68.53 17.70 67.82 16.57 67.10 L 16.57 66.54 L 16.14 66.38 L 16.08 66.86 C 15.55 66.61 14.49 66.11 13.96 65.86 C 14.18 65.36 14.62 64.36 14.84 63.85 Z" />
</g>
<g id="#0b0d0aff">
<path fill="#0b0d0a" opacity="1.00" d=" M 129.23 65.14 C 130.16 65.52 130.62 66.25 130.61 67.33 C 131.04 70.53 132.40 73.48 133.28 76.57 C 133.72 77.54 133.35 78.47 132.67 79.20 C 131.07 74.66 128.79 70.08 129.23 65.14 Z" />
<path fill="#0b0d0a" opacity="1.00" d=" M 249.70 77.70 C 250.03 77.37 250.68 76.72 251.01 76.40 C 250.92 78.62 250.59 80.81 250.07 82.96 C 248.31 82.87 247.79 84.94 247.85 86.32 C 247.76 86.41 247.58 86.60 247.49 86.69 C 246.15 88.05 245.06 89.61 244.02 91.20 C 243.56 91.20 242.66 91.21 242.20 91.21 C 243.04 87.91 245.87 85.56 246.91 82.29 C 249.19 81.83 249.19 79.49 249.70 77.70 Z" />
<path fill="#0b0d0a" opacity="1.00" d=" M 215.99 124.18 C 219.54 124.52 222.59 122.41 225.75 121.16 C 225.60 121.65 225.30 122.63 225.15 123.12 C 222.47 124.59 219.52 125.62 216.43 125.51 C 216.08 125.95 215.38 126.83 215.03 127.27 C 212.55 126.71 210.64 127.96 209.17 129.83 C 209.43 128.58 209.69 127.33 209.96 126.08 C 211.74 125.93 213.53 125.80 215.32 125.68 C 214.25 122.58 210.42 125.01 208.06 124.45 C 209.79 121.74 213.80 122.48 215.99 124.18 Z" />
<path fill="#0b0d0a" opacity="1.00" d=" M 203.50 123.71 C 204.65 124.17 205.82 124.61 206.99 125.05 C 205.38 126.67 203.00 126.80 200.95 127.52 C 201.82 126.26 202.68 125.01 203.50 123.71 Z" />
<path fill="#0b0d0a" opacity="1.00" d=" M 198.56 128.48 C 199.09 128.36 200.13 128.12 200.65 128.00 C 202.24 128.38 204.59 127.82 205.31 129.76 C 203.47 129.77 201.63 129.72 199.79 129.67 C 199.49 129.37 198.87 128.78 198.56 128.48 Z" />
<path fill="#0b0d0a" opacity="1.00" d=" M 205.65 157.29 C 206.67 155.17 209.43 155.34 211.26 156.26 C 209.70 156.96 207.90 157.30 206.62 158.50 C 202.88 161.91 199.28 165.62 196.99 170.19 C 194.97 170.96 193.15 172.13 191.47 173.47 C 190.97 173.48 189.97 173.49 189.47 173.50 C 189.43 172.99 189.35 171.98 189.31 171.47 C 189.84 171.06 190.91 170.23 191.44 169.82 L 192.01 169.86 C 192.25 169.83 192.73 169.76 192.97 169.73 C 193.21 169.52 193.69 169.10 193.94 168.89 C 194.07 168.72 194.34 168.39 194.48 168.22 C 195.67 166.96 196.92 165.76 198.24 164.63 C 198.33 164.55 198.53 164.40 198.62 164.32 C 201.42 162.46 203.86 160.16 205.65 157.29 Z" />
<path fill="#0b0d0a" opacity="1.00" d=" M 194.33 163.42 C 194.88 162.99 195.99 162.13 196.54 161.70 L 197.12 161.83 L 197.13 162.79 C 196.10 164.52 195.21 166.33 194.48 168.22 C 194.34 168.39 194.07 168.72 193.94 168.89 C 193.69 169.10 193.21 169.52 192.97 169.73 L 192.01 169.86 L 191.75 169.38 C 192.68 167.77 193.70 166.22 194.66 164.63 C 194.74 164.49 194.91 164.21 195.00 164.06 L 195.65 164.03 C 195.46 163.89 195.10 163.63 194.92 163.49 L 194.33 163.42 Z" />
<path fill="#0b0d0a" opacity="1.00" d=" M 189.26 166.59 C 190.98 165.59 192.68 164.53 194.33 163.42 L 194.52 164.11 L 194.66 164.63 C 193.13 165.26 191.90 166.33 190.85 167.57 C 190.45 167.32 189.66 166.83 189.26 166.59 Z" />
<path fill="#0b0d0a" opacity="1.00" d=" M 132.85 210.34 C 133.42 209.89 134.58 209.00 135.15 208.55 C 136.10 209.18 137.05 209.81 138.00 210.45 C 138.81 210.34 140.41 210.12 141.21 210.02 L 140.75 210.97 C 137.37 212.45 133.49 211.43 129.91 211.91 C 131.03 211.69 131.99 211.07 132.85 210.34 Z" />
<path fill="#0b0d0a" opacity="1.00" d=" M 158.90 222.47 L 159.59 221.63 C 159.37 224.87 159.33 228.12 159.63 231.36 C 159.34 231.45 158.75 231.62 158.45 231.71 C 158.31 235.01 158.28 238.31 158.18 241.62 C 157.53 235.24 157.85 228.78 158.90 222.47 Z" />
</g>
<g id="#030100ff">
<path fill="#030100" opacity="1.00" d=" M 185.65 70.71 C 187.28 68.06 189.72 66.08 192.87 65.59 C 199.53 66.53 205.50 70.04 210.44 74.54 C 213.90 78.57 217.37 83.43 216.64 89.05 C 217.14 92.98 214.41 96.06 211.63 98.39 C 210.04 98.53 208.58 99.19 207.17 99.88 C 201.51 99.39 195.54 97.83 191.66 93.36 C 185.89 87.61 183.59 78.56 185.65 70.71 M 189.65 68.57 C 185.37 73.10 186.80 79.58 188.26 84.98 C 191.43 94.11 203.35 101.35 212.20 95.26 C 214.55 91.82 215.87 87.18 213.91 83.26 C 211.30 76.76 205.43 72.16 199.16 69.46 C 196.15 68.38 192.70 66.70 189.65 68.57 Z" />
<path fill="#030100" opacity="1.00" d=" M 140.92 90.41 C 140.80 89.33 141.21 88.28 141.43 87.24 C 141.56 87.70 141.84 88.62 141.97 89.09 C 146.33 89.92 150.77 89.63 155.14 90.26 C 151.03 92.45 145.42 92.34 141.52 89.53 L 140.92 90.41 Z" />
<path fill="#030100" opacity="1.00" d=" M 155.06 115.41 C 155.64 114.35 156.04 113.01 157.39 112.66 C 157.33 113.34 157.22 114.71 157.16 115.39 C 158.90 114.25 160.32 112.01 162.59 113.95 C 161.43 114.68 160.21 115.31 159.05 116.05 C 157.68 117.41 157.31 120.12 154.93 120.00 C 155.52 118.47 156.49 117.13 157.18 115.64 C 156.65 115.58 155.59 115.47 155.06 115.41 Z" />
</g>
<g id="#738181ff">
<path fill="#738181" opacity="1.00" d=" M 16.14 66.38 L 16.57 66.54 L 16.57 67.10 L 16.08 66.86 L 16.14 66.38 Z" />
</g>
<g id="#68923fff">
<path fill="#68923f" opacity="1.00" d=" M 189.65 68.57 C 192.70 66.70 196.15 68.38 199.16 69.46 C 205.43 72.16 211.30 76.76 213.91 83.26 C 215.87 87.18 214.55 91.82 212.20 95.26 C 203.35 101.35 191.43 94.11 188.26 84.98 C 186.80 79.58 185.37 73.10 189.65 68.57 M 190.82 72.85 C 189.81 76.14 187.96 79.93 190.36 83.10 C 190.38 83.73 190.43 85.01 190.46 85.64 C 192.30 87.80 193.75 90.42 196.18 91.98 C 198.16 92.82 200.08 93.78 202.04 94.66 C 203.97 94.79 205.91 94.68 207.84 94.74 C 210.56 92.84 213.15 89.51 212.13 86.01 C 211.84 80.56 207.28 76.85 203.33 73.72 C 199.88 70.82 194.58 70.24 190.82 72.85 Z" />
</g>
<g id="#f3f3f3ff">
<path fill="#f3f3f3" opacity="1.00" d=" M 274.88 79.93 C 282.11 76.03 290.01 73.66 297.71 70.90 C 297.05 73.33 296.48 75.79 295.96 78.25 C 296.41 82.26 296.17 86.29 296.24 90.31 C 295.08 91.03 293.91 91.74 292.77 92.48 C 292.67 92.55 292.48 92.68 292.38 92.74 C 287.69 96.13 283.22 99.79 278.75 103.47 C 278.66 103.54 278.48 103.69 278.39 103.76 C 270.93 110.62 264.89 118.88 259.73 127.57 C 258.93 126.82 258.14 126.07 257.35 125.33 C 254.40 128.75 251.75 132.42 249.75 136.48 C 249.36 136.49 248.60 136.50 248.21 136.51 C 248.34 137.23 248.47 137.96 248.60 138.70 C 248.09 138.91 247.07 139.35 246.56 139.56 C 245.15 143.21 242.71 146.26 240.54 149.46 C 238.62 152.27 239.13 155.80 238.87 159.00 C 238.91 161.45 237.46 163.57 237.25 165.96 C 236.88 169.85 236.97 173.90 235.44 177.57 C 234.23 179.61 232.53 181.30 231.01 183.11 C 230.16 181.97 229.30 180.83 228.46 179.70 C 228.94 171.43 220.29 166.77 214.22 162.98 C 215.66 158.44 215.43 153.50 217.40 149.11 C 218.87 145.50 220.51 141.93 222.73 138.72 C 225.78 134.48 226.70 129.10 229.91 124.96 C 234.17 119.38 236.61 112.58 241.42 107.42 C 244.56 103.59 248.78 100.79 251.67 96.75 C 253.78 93.88 256.31 91.33 259.08 89.09 C 260.20 87.60 261.75 86.65 263.55 86.15 C 263.66 86.08 263.86 85.94 263.96 85.87 C 264.05 85.78 264.24 85.60 264.33 85.51 C 267.00 82.37 271.15 81.25 274.88 79.93 Z" />
<path fill="#f3f3f3" opacity="1.00" d=" M 187.51 194.61 C 187.92 193.84 188.75 192.29 189.16 191.52 C 190.01 195.84 190.73 200.61 194.39 203.55 C 190.77 207.86 186.65 211.70 182.77 215.77 C 180.87 217.78 180.21 220.57 179.54 223.17 C 179.77 223.53 180.23 224.26 180.46 224.62 C 180.37 224.92 180.18 225.54 180.09 225.84 C 176.04 228.56 172.42 231.84 168.56 234.81 C 166.08 236.88 163.51 238.85 161.05 240.93 C 158.28 238.41 160.12 234.57 159.63 231.36 C 159.33 228.12 159.37 224.87 159.59 221.63 L 160.04 221.02 C 163.18 216.84 165.14 211.99 167.51 207.38 C 172.42 200.93 178.51 193.98 187.18 193.35 C 187.26 193.67 187.42 194.29 187.51 194.61 Z" />
<path fill="#f3f3f3" opacity="1.00" d=" M 278.15 216.70 C 278.69 216.27 279.23 215.85 279.78 215.42 C 284.48 215.96 288.35 219.25 291.04 222.96 C 293.20 226.74 291.16 231.41 288.07 233.99 C 284.89 236.26 284.80 241.33 280.88 242.71 C 277.13 243.53 275.18 247.24 271.92 248.89 C 269.30 249.23 266.62 249.26 264.00 248.93 C 262.06 248.03 260.70 246.26 259.24 244.76 C 255.55 241.61 262.24 235.14 256.69 233.14 L 256.19 232.82 C 258.10 231.97 259.60 230.51 261.17 229.17 C 265.42 225.46 270.55 222.59 273.89 217.96 C 274.64 217.12 275.06 215.83 276.25 215.52 C 276.72 215.82 277.68 216.41 278.15 216.70 Z" />
<path fill="#f3f3f3" opacity="1.00" d=" M 165.97 238.92 C 169.37 237.03 171.76 233.80 175.21 231.99 C 177.96 236.91 177.57 242.79 176.36 248.10 C 176.07 249.30 175.70 251.22 177.33 251.63 C 180.14 252.02 182.98 252.18 185.78 252.72 L 184.62 253.00 L 160.42 253.00 C 160.16 249.66 160.00 246.30 160.49 242.98 C 162.48 241.87 164.56 240.77 165.97 238.92 Z" />
</g>
<g id="#726e72ff">
<path fill="#726e72" opacity="1.00" d=" M 263.96 85.87 C 264.05 85.78 264.24 85.60 264.33 85.51 C 264.24 85.60 264.05 85.78 263.96 85.87 Z" />
<path fill="#726e72" opacity="1.00" d=" M 263.55 86.15 C 263.66 86.08 263.86 85.94 263.96 85.87 C 263.86 85.94 263.66 86.08 263.55 86.15 Z" />
<path fill="#726e72" opacity="1.00" d=" M 287.99 180.24 C 290.15 181.34 292.09 182.83 293.73 184.62 C 293.42 184.62 292.81 184.62 292.50 184.61 C 290.95 183.22 288.62 182.39 287.99 180.24 Z" />
<path fill="#726e72" opacity="1.00" d=" M 278.40 192.14 C 278.52 192.11 278.77 192.05 278.89 192.03 L 278.40 192.14 Z" />
<path fill="#726e72" opacity="1.00" d=" M 280.24 192.55 C 281.31 190.91 286.16 192.70 283.59 194.00 C 282.44 193.60 281.35 193.06 280.24 192.55 Z" />
</g>
<g id="#000100ff">
<path fill="#000100" opacity="1.00" d=" M 137.35 90.40 C 137.62 90.33 138.14 90.19 138.40 90.13 C 137.93 92.46 140.14 93.97 141.21 95.78 C 141.50 95.62 142.09 95.31 142.39 95.16 L 142.81 94.96 C 144.03 97.62 143.91 100.63 144.74 103.41 C 143.35 104.09 142.01 104.85 140.73 105.71 C 138.96 103.81 143.37 102.93 142.59 100.96 C 140.64 97.54 137.98 94.42 137.35 90.40 Z" />
<path fill="#000100" opacity="1.00" d=" M 298.32 99.50 L 298.35 99.65 C 298.98 104.29 301.13 109.23 305.09 111.92 C 305.20 112.39 305.43 113.34 305.54 113.82 C 308.09 115.67 310.64 117.53 313.00 119.63 L 313.00 123.21 C 296.05 135.07 281.63 150.12 269.68 166.96 C 267.16 169.87 265.38 173.69 261.84 175.51 C 261.97 174.02 262.67 172.74 263.60 171.62 C 270.03 163.41 276.20 154.98 283.20 147.23 C 291.60 137.07 302.40 129.37 312.41 120.93 C 309.53 118.73 306.78 116.39 303.86 114.26 C 302.83 112.61 301.16 111.61 299.59 110.56 C 299.08 109.01 298.56 107.46 298.03 105.93 C 298.03 105.44 298.03 104.47 298.03 103.98 C 297.99 103.54 297.90 102.68 297.86 102.24 L 297.15 102.06 L 297.55 101.27 C 297.74 100.83 298.13 99.95 298.32 99.50 Z" />
<path fill="#000100" opacity="1.00" d=" M 197.10 161.09 C 197.54 161.10 198.41 161.13 198.84 161.14 L 198.94 161.82 C 198.49 161.82 197.57 161.82 197.12 161.83 L 197.10 161.09 Z" />
<path fill="#000100" opacity="1.00" d=" M 157.20 243.86 C 158.84 236.14 156.04 227.59 159.30 220.12 C 159.20 220.71 159.00 221.89 158.90 222.47 C 157.85 228.78 157.53 235.24 158.18 241.62 C 159.26 241.66 160.34 241.70 161.43 241.74 L 161.05 240.93 C 163.51 238.85 166.08 236.88 168.56 234.81 C 172.42 231.84 176.04 228.56 180.09 225.84 C 180.18 225.54 180.37 224.92 180.46 224.62 C 181.04 224.54 182.22 224.40 182.80 224.33 C 182.72 224.78 182.55 225.67 182.47 226.12 C 180.03 228.04 177.43 229.80 175.21 231.99 C 171.76 233.80 169.37 237.03 165.97 238.92 C 164.56 240.77 162.48 241.87 160.49 242.98 C 160.00 246.30 160.16 249.66 160.42 253.00 L 158.59 253.00 C 158.72 250.99 158.72 248.96 158.71 246.95 C 154.55 247.08 151.98 250.74 148.89 253.00 L 145.83 253.00 C 149.52 249.83 153.53 247.05 157.20 243.86 Z" />
<path fill="#000100" opacity="1.00" d=" M 203.08 242.13 C 205.17 240.62 207.31 239.19 209.55 237.93 C 209.54 238.58 209.52 239.88 209.51 240.54 C 209.04 240.49 208.10 240.41 207.63 240.37 L 207.54 241.29 C 207.08 241.50 206.16 241.93 205.70 242.15 C 203.35 243.62 201.04 245.16 198.78 246.77 C 197.16 247.95 195.38 248.90 193.54 249.69 L 193.49 250.68 C 193.12 250.65 192.37 250.57 191.99 250.53 C 191.25 251.15 189.77 252.38 189.04 253.00 L 184.62 253.00 L 185.78 252.72 C 186.14 252.64 186.88 252.47 187.25 252.39 C 188.27 251.64 189.31 250.91 190.38 250.23 L 190.54 249.57 C 191.85 249.07 193.16 248.60 194.50 248.21 C 194.51 247.82 194.53 247.05 194.54 246.67 C 195.18 246.59 196.44 246.44 197.07 246.37 C 198.30 244.09 200.98 243.35 203.08 242.13 Z" />
</g>
<g id="#010102ff">
<path fill="#010102" opacity="1.00" d=" M 129.38 90.73 C 130.99 91.16 132.87 91.46 133.81 93.03 C 135.97 95.97 138.66 99.08 138.42 102.97 C 139.19 108.03 135.34 111.95 132.15 115.31 C 134.15 117.83 136.18 120.40 138.95 122.14 C 141.27 123.55 142.18 126.24 143.83 128.26 C 151.11 136.71 158.64 144.99 165.13 154.07 C 164.16 155.60 164.74 157.43 165.52 158.89 C 165.77 159.53 166.27 160.79 166.52 161.43 L 166.49 161.69 C 166.08 166.08 165.75 170.49 164.87 174.83 C 167.35 174.90 167.48 172.63 167.81 170.76 C 168.09 171.40 168.66 172.67 168.94 173.30 C 168.95 173.35 168.98 173.43 169.00 173.47 C 169.52 175.36 169.55 177.34 169.64 179.29 L 168.48 180.38 C 168.45 180.40 168.39 180.44 168.36 180.46 L 166.76 181.15 C 167.47 179.10 168.70 176.99 167.76 174.79 C 167.48 175.40 166.92 176.62 166.65 177.23 C 166.59 177.35 166.48 177.60 166.42 177.72 C 165.93 178.80 165.45 179.87 164.96 180.95 C 163.57 181.63 163.30 182.66 164.13 184.06 C 163.27 185.23 162.38 186.37 161.46 187.49 L 161.14 187.71 C 160.80 186.19 161.25 184.84 162.51 183.65 C 163.47 182.56 163.26 181.01 163.06 179.70 C 163.23 179.57 163.57 179.32 163.74 179.19 C 165.10 178.41 165.57 177.30 165.18 175.87 C 164.04 176.61 163.56 177.72 163.74 179.19 C 163.57 179.32 163.23 179.57 163.06 179.70 C 162.01 180.25 161.50 181.35 161.07 182.40 C 158.44 186.00 155.05 189.28 153.87 193.72 C 152.44 195.50 151.22 197.45 150.52 199.65 C 152.84 197.54 154.84 195.10 156.42 192.39 C 157.35 191.06 157.93 189.16 159.78 188.93 C 159.09 190.91 158.29 192.90 158.30 195.04 C 157.25 195.66 156.19 196.25 155.12 196.83 C 152.87 200.67 148.58 202.67 146.79 206.82 C 147.67 206.90 149.44 207.05 150.33 207.12 L 150.45 207.90 C 146.68 209.64 143.50 212.32 139.80 214.11 C 144.32 209.09 146.11 202.42 150.08 197.03 C 147.13 199.57 144.84 202.74 142.48 205.81 C 142.25 206.01 141.78 206.41 141.55 206.61 C 141.52 207.28 141.46 208.62 141.42 209.29 C 139.97 209.36 138.53 209.40 137.08 209.44 C 137.21 208.91 137.48 207.87 137.62 207.34 C 133.32 207.28 128.67 208.37 124.71 206.21 C 118.69 203.66 113.07 200.10 108.47 195.43 C 105.91 192.94 103.96 189.86 101.05 187.75 C 95.49 183.22 93.84 175.75 88.98 170.67 C 87.89 175.22 86.61 179.79 83.93 183.71 C 80.30 177.56 80.18 169.96 80.59 163.01 C 81.49 159.73 83.60 156.92 84.91 153.79 C 87.24 149.17 88.34 143.91 91.59 139.79 C 94.15 136.61 96.55 133.30 99.18 130.18 C 102.64 126.59 105.06 121.99 109.27 119.16 C 113.59 116.12 116.62 111.70 120.08 107.80 C 123.51 107.09 125.84 104.13 129.19 103.15 C 130.01 102.79 130.82 102.43 131.64 102.07 C 131.01 99.66 130.59 97.20 130.36 94.72 C 131.01 94.64 132.31 94.49 132.96 94.41 C 131.67 93.27 130.36 92.15 129.38 90.73 M 128.08 119.10 C 126.29 121.00 124.12 122.43 122.01 123.95 C 119.31 126.59 116.69 129.33 113.98 131.96 C 110.19 135.69 108.09 140.71 104.63 144.70 C 101.84 149.00 98.10 152.59 95.29 156.89 C 92.62 160.15 91.02 163.98 90.13 168.08 C 91.23 171.52 93.55 174.34 95.18 177.52 C 97.55 181.71 100.20 185.97 104.33 188.64 C 108.02 192.93 111.81 197.23 116.57 200.40 C 119.76 203.33 124.25 203.83 127.73 206.31 C 131.24 206.29 134.76 206.23 138.27 206.37 C 141.75 204.46 143.86 201.00 146.39 198.08 C 152.70 190.63 159.08 183.01 162.94 173.96 C 164.45 170.22 163.37 165.98 163.72 162.05 C 164.37 157.17 161.20 153.13 158.67 149.32 C 154.73 143.37 149.75 138.23 145.30 132.68 C 141.92 129.39 139.39 125.17 135.28 122.69 C 133.51 121.84 132.70 119.97 131.66 118.43 C 130.47 118.58 128.96 118.00 128.08 119.10 Z" />
<path fill="#010102" opacity="1.00" d=" M 170.78 179.13 C 169.16 177.23 173.29 176.79 171.57 178.87 L 170.78 179.13 Z" />
</g>
<g id="#1a1a12ff">
<path fill="#1a1a12" opacity="1.00" d=" M 242.01 92.00 L 242.82 92.32 C 242.78 92.73 242.70 93.55 242.66 93.95 L 241.90 93.69 C 241.92 93.27 241.98 92.42 242.01 92.00 Z" />
</g>
<g id="#ffffffff">
<path fill="#ffffff" opacity="1.00" d=" M 292.58 95.20 C 293.79 94.23 294.98 93.23 296.18 92.24 C 296.19 94.45 296.26 96.66 296.23 98.87 C 295.90 100.14 296.21 101.20 297.15 102.06 C 297.16 102.51 297.17 103.42 297.18 103.87 C 297.39 104.38 297.81 105.41 298.03 105.93 C 298.56 107.46 299.08 109.01 299.59 110.56 C 301.16 111.61 302.83 112.61 303.86 114.26 C 306.78 116.39 309.53 118.73 312.41 120.93 C 302.40 129.37 291.60 137.07 283.20 147.23 C 276.20 154.98 270.03 163.41 263.60 171.62 C 262.67 172.74 261.97 174.02 261.84 175.51 C 265.38 173.69 267.16 169.87 269.68 166.96 C 281.63 150.12 296.05 135.07 313.00 123.21 L 313.00 213.47 C 311.14 226.54 312.20 239.84 311.91 253.00 L 237.33 253.00 C 237.43 251.70 237.48 250.33 236.75 249.18 C 234.97 248.77 234.96 250.97 234.17 251.99 C 232.21 251.54 231.01 249.42 228.85 249.40 C 228.82 250.30 228.77 252.10 228.75 253.00 L 189.04 253.00 C 189.77 252.38 191.25 251.15 191.99 250.53 C 192.37 250.57 193.12 250.65 193.49 250.68 L 193.54 249.69 C 195.38 248.90 197.16 247.95 198.78 246.77 C 201.04 245.16 203.35 243.62 205.70 242.15 C 206.16 241.93 207.08 241.50 207.54 241.29 L 207.63 240.37 C 208.10 240.41 209.04 240.49 209.51 240.54 C 209.52 239.88 209.54 238.58 209.55 237.93 C 207.31 239.19 205.17 240.62 203.08 242.13 C 200.98 243.35 198.30 244.09 197.07 246.37 C 196.44 246.44 195.18 246.59 194.54 246.67 C 194.53 247.05 194.51 247.82 194.50 248.21 C 193.16 248.60 191.85 249.07 190.54 249.57 L 190.38 250.23 C 189.31 250.91 188.27 251.64 187.25 252.39 C 186.88 252.47 186.14 252.64 185.78 252.72 C 182.98 252.18 180.14 252.02 177.33 251.63 C 175.70 251.22 176.07 249.30 176.36 248.10 C 177.57 242.79 177.96 236.91 175.21 231.99 C 177.43 229.80 180.03 228.04 182.47 226.12 C 182.55 225.67 182.72 224.78 182.80 224.33 C 182.22 224.40 181.04 224.54 180.46 224.62 C 180.23 224.26 179.77 223.53 179.54 223.17 C 180.21 220.57 180.87 217.78 182.77 215.77 C 186.65 211.70 190.77 207.86 194.39 203.55 L 195.07 204.23 C 201.06 204.34 207.09 204.57 213.07 204.15 C 217.85 203.10 222.74 203.20 227.60 202.83 C 227.34 195.11 228.95 187.44 228.46 179.70 C 229.30 180.83 230.16 181.97 231.01 183.11 C 232.53 181.30 234.23 179.61 235.44 177.57 C 236.97 173.90 236.88 169.85 237.25 165.96 C 237.46 163.57 238.91 161.45 238.87 159.00 C 239.13 155.80 238.62 152.27 240.54 149.46 C 242.71 146.26 245.15 143.21 246.56 139.56 C 247.07 139.35 248.09 138.91 248.60 138.70 C 248.47 137.96 248.34 137.23 248.21 136.51 C 248.60 136.50 249.36 136.49 249.75 136.48 C 251.75 132.42 254.40 128.75 257.35 125.33 C 258.14 126.07 258.93 126.82 259.73 127.57 C 255.55 134.37 251.80 141.43 248.10 148.50 C 248.60 148.56 249.59 148.67 250.09 148.73 C 258.15 133.84 265.77 118.06 278.49 106.49 C 278.63 106.36 278.91 106.11 279.05 105.98 C 279.18 105.86 279.42 105.63 279.55 105.52 C 281.03 104.10 282.61 102.77 284.26 101.54 C 284.35 101.46 284.53 101.32 284.62 101.24 C 286.12 99.97 287.66 98.74 289.25 97.57 C 289.35 97.50 289.54 97.36 289.64 97.29 C 290.28 96.83 291.57 95.93 292.21 95.47 C 292.30 95.40 292.48 95.27 292.58 95.20 M 286.05 175.36 C 284.95 176.41 286.51 178.57 287.82 177.68 C 289.00 176.67 287.30 174.54 286.05 175.36 M 291.12 179.14 C 289.55 182.14 294.39 179.38 291.12 179.14 M 287.99 180.24 C 288.62 182.39 290.95 183.22 292.50 184.61 C 292.81 184.62 293.42 184.62 293.73 184.62 C 292.09 182.83 290.15 181.34 287.99 180.24 M 278.40 192.14 C 278.17 192.51 277.70 193.26 277.47 193.64 C 272.68 195.14 268.76 198.64 265.14 202.00 C 262.97 204.70 259.19 205.31 257.21 208.20 C 254.08 210.28 252.01 213.50 249.02 215.72 C 245.95 215.44 243.40 212.82 241.17 210.76 C 239.82 210.17 238.49 209.57 237.10 209.11 C 238.34 211.83 241.92 212.83 244.16 214.77 C 245.05 215.45 245.95 216.12 246.86 216.79 C 246.68 218.58 246.53 220.38 246.38 222.18 C 245.40 222.88 244.96 223.91 245.09 225.29 L 244.14 225.41 L 243.73 226.36 L 244.32 227.11 C 241.79 227.45 242.74 230.83 240.29 231.62 L 238.96 231.16 C 238.95 234.04 241.39 235.04 243.90 234.90 C 243.26 234.18 242.63 233.45 242.01 232.73 C 243.24 232.40 244.72 232.21 244.75 230.58 C 246.41 230.89 247.56 229.65 248.74 228.73 C 250.10 227.78 252.38 227.63 252.68 225.70 C 256.07 221.42 260.40 218.02 263.84 213.80 C 267.16 208.94 271.51 204.86 274.62 199.85 C 277.26 197.40 279.08 192.44 283.59 194.00 C 286.16 192.70 281.31 190.91 280.24 192.55 L 278.89 192.03 C 278.77 192.05 278.52 192.11 278.40 192.14 M 273.24 217.20 C 269.78 220.31 266.42 223.81 262.55 226.58 C 260.70 227.75 259.69 230.42 257.31 230.53 L 257.60 231.61 C 255.85 231.61 254.10 231.64 252.36 231.68 C 252.39 231.88 252.45 232.27 252.48 232.46 L 253.69 232.26 L 253.68 233.28 C 254.68 233.24 255.69 233.19 256.69 233.14 C 262.24 235.14 255.55 241.61 259.24 244.76 C 260.70 246.26 262.06 248.03 264.00 248.93 C 266.62 249.26 269.30 249.23 271.92 248.89 C 275.18 247.24 277.13 243.53 280.88 242.71 C 284.80 241.33 284.89 236.26 288.07 233.99 C 291.16 231.41 293.20 226.74 291.04 222.96 C 288.35 219.25 284.48 215.96 279.78 215.42 C 279.23 215.85 278.69 216.27 278.15 216.70 C 277.68 216.41 276.72 215.82 276.25 215.52 C 276.34 215.19 276.52 214.53 276.61 214.20 C 275.02 214.41 273.24 215.38 273.24 217.20 M 235.12 239.21 C 234.67 240.82 235.26 241.34 236.91 240.77 C 237.36 239.17 236.77 238.64 235.12 239.21 M 225.98 246.95 C 228.08 247.29 230.18 247.67 232.27 248.06 C 232.98 244.69 228.71 245.44 226.68 244.55 C 226.51 245.15 226.16 246.35 225.98 246.95 Z" />
<path fill="#ffffff" opacity="1.00" d=" M 278.39 103.76 C 278.48 103.69 278.66 103.54 278.75 103.47 C 278.66 103.54 278.48 103.69 278.39 103.76 Z" />
</g>
<g id="#1d1f1eff">
<path fill="#1d1f1e" opacity="1.00" d=" M 239.26 97.30 L 239.72 97.36 C 239.66 97.48 239.54 97.73 239.48 97.85 L 239.26 97.30 Z" />
<path fill="#1d1f1e" opacity="1.00" d=" M 234.10 108.47 C 234.22 108.67 234.45 109.08 234.57 109.29 L 233.96 109.24 L 234.10 108.47 Z" />
<path fill="#1d1f1e" opacity="1.00" d=" M 233.27 109.43 L 233.96 109.24 L 234.03 109.95 L 233.20 109.87 L 233.27 109.43 Z" />
<path fill="#1d1f1e" opacity="1.00" d=" M 244.14 225.41 L 245.09 225.29 C 244.90 225.74 244.51 226.65 244.32 227.11 L 243.73 226.36 L 244.14 225.41 Z" />
<path fill="#1d1f1e" opacity="1.00" d=" M 240.29 231.62 C 242.74 230.83 241.79 227.45 244.32 227.11 C 243.96 228.27 243.63 229.45 243.30 230.63 C 243.66 230.61 244.39 230.59 244.75 230.58 C 244.72 232.21 243.24 232.40 242.01 232.73 C 242.63 233.45 243.26 234.18 243.90 234.90 C 241.39 235.04 238.95 234.04 238.96 231.16 L 240.29 231.62 Z" />
</g>
<g id="#333329ff">
<path fill="#333329" opacity="1.00" d=" M 298.33 99.41 C 298.34 99.47 298.34 99.59 298.35 99.65 L 298.32 99.50 L 298.33 99.41 Z" />
<path fill="#333329" opacity="1.00" d=" M 297.15 102.06 L 297.86 102.24 C 297.90 102.68 297.99 103.54 298.03 103.98 L 297.18 103.87 C 297.17 103.42 297.16 102.51 297.15 102.06 Z" />
<path fill="#333329" opacity="1.00" d=" M 190.08 123.49 C 191.70 122.93 192.28 123.45 191.84 125.05 C 190.16 125.63 189.58 125.11 190.08 123.49 Z" />
</g>
<g id="#888880ff">
<path fill="#888880" opacity="1.00" d=" M 241.02 100.94 C 240.17 102.86 239.30 104.77 238.18 106.55 C 238.07 106.70 237.86 106.99 237.76 107.13 L 237.03 107.47 C 236.59 104.13 233.65 107.63 237.03 107.47 L 236.89 108.02 C 236.74 108.18 236.43 108.50 236.28 108.65 L 235.46 109.48 L 234.67 109.91 L 234.57 109.29 C 234.45 109.08 234.22 108.67 234.10 108.47 C 234.38 106.85 233.86 106.18 232.54 106.47 C 232.15 107.68 232.67 108.34 234.10 108.47 L 233.96 109.24 L 233.27 109.43 C 233.04 109.57 232.56 109.87 232.33 110.02 C 232.03 110.23 231.43 110.64 231.13 110.85 L 230.11 111.39 C 229.95 111.49 229.64 111.70 229.49 111.80 C 225.92 114.98 222.50 118.55 217.88 120.15 L 217.96 119.13 C 218.20 118.50 218.69 117.26 218.93 116.63 C 216.42 117.54 213.87 118.34 211.36 119.26 L 211.28 118.42 C 217.08 115.64 221.06 110.47 226.24 106.88 L 226.21 107.54 C 226.19 108.09 226.14 109.19 226.11 109.74 C 226.00 109.86 225.77 110.10 225.65 110.22 C 223.63 112.23 221.86 114.49 220.70 117.11 C 222.60 115.52 224.54 114.00 226.50 112.50 L 226.58 112.44 L 226.59 112.36 C 226.65 111.77 226.79 110.59 226.86 110.00 C 227.21 109.72 227.91 109.16 228.26 108.89 C 228.46 108.65 228.87 108.19 229.07 107.96 C 229.14 107.83 229.27 107.58 229.33 107.45 C 229.79 105.73 231.14 104.58 232.49 103.52 C 232.64 103.39 232.94 103.14 233.10 103.02 L 233.56 102.85 C 233.69 104.39 235.60 106.19 236.98 104.76 C 238.45 103.62 239.76 102.30 241.02 100.94 Z" />
<path fill="#888880" opacity="1.00" d=" M 234.03 109.95 L 234.67 109.91 L 234.75 110.55 L 234.20 110.66 L 234.03 109.95 Z" />
<path fill="#888880" opacity="1.00" d=" M 226.28 116.61 C 226.37 116.53 226.55 116.38 226.64 116.30 C 226.55 116.38 226.37 116.53 226.28 116.61 Z" />
<path fill="#888880" opacity="1.00" d=" M 192.76 121.82 L 193.06 121.96 C 196.33 122.08 200.10 120.44 202.97 122.66 L 203.27 123.06 C 201.79 123.14 200.30 123.22 198.81 123.30 C 197.05 123.28 195.29 123.14 193.57 122.78 C 193.37 122.54 192.96 122.06 192.76 121.82 Z" />
<path fill="#888880" opacity="1.00" d=" M 198.44 125.75 C 198.82 125.84 199.58 126.01 199.96 126.10 C 200.21 126.45 200.70 127.16 200.95 127.52 L 200.65 128.00 C 200.13 128.12 199.09 128.36 198.56 128.48 L 197.81 128.27 C 197.97 127.64 198.28 126.38 198.44 125.75 Z" />
</g>
<g id="#ab8c6fff">
<path fill="#ab8c6f" opacity="1.00" d=" M 16.89 121.71 C 19.86 122.63 22.85 123.79 26.01 123.62 C 28.70 123.74 31.51 123.16 34.10 124.07 C 35.38 126.91 33.45 129.55 31.70 131.63 C 29.57 134.06 27.73 137.18 24.40 138.07 C 24.39 138.35 24.36 138.91 24.35 139.18 C 30.75 139.86 37.37 140.35 43.64 138.55 C 45.27 143.67 45.66 149.16 47.98 154.06 C 49.71 157.63 50.99 161.40 52.86 164.90 C 44.57 167.34 35.83 166.33 27.58 164.34 C 24.21 162.82 20.79 161.40 17.42 159.89 C 11.47 156.10 5.37 152.49 0.00 147.89 L 0.00 125.67 C 0.45 126.09 1.34 126.93 1.78 127.35 C 5.66 130.33 3.86 135.78 3.50 139.90 C 7.90 138.80 12.46 138.98 16.96 138.84 C 15.62 133.19 15.81 127.39 16.89 121.71 Z" />
</g>
<g id="#6c8e46ff">
<path fill="#6c8e46" opacity="1.00" d=" M 122.38 142.38 C 126.34 141.32 130.28 143.49 133.62 145.39 C 136.42 148.98 140.12 152.22 140.95 156.94 C 142.40 162.58 144.00 170.14 139.10 174.48 C 131.75 175.16 123.83 172.78 118.91 167.09 C 115.00 161.69 113.48 154.76 114.25 148.17 C 115.78 144.99 118.90 142.87 122.38 142.38 M 121.26 145.50 C 119.69 146.66 118.20 147.94 116.38 148.71 C 117.38 150.70 116.79 152.83 116.61 154.92 C 117.16 159.40 119.50 163.32 121.80 167.11 C 124.64 168.37 126.88 170.99 130.08 171.36 C 132.90 171.67 135.76 172.65 138.57 171.73 C 139.34 169.47 141.22 167.43 140.81 164.91 C 139.51 158.32 135.80 152.52 131.60 147.39 C 128.86 144.63 124.78 144.97 121.26 145.50 Z" />
</g>
<g id="#1e181cff">
<path fill="#1e181c" opacity="1.00" d=" M 165.13 154.07 C 166.81 155.24 166.26 157.34 165.52 158.89 C 164.74 157.43 164.16 155.60 165.13 154.07 Z" />
<path fill="#1e181c" opacity="1.00" d=" M 167.51 155.06 C 168.48 157.28 169.14 160.23 166.70 161.82 C 166.60 159.53 166.76 157.24 167.51 155.06 Z" />
<path fill="#1e181c" opacity="1.00" d=" M 166.49 161.69 L 166.55 161.98 C 167.26 164.86 167.59 167.81 167.81 170.76 C 167.48 172.63 167.35 174.90 164.87 174.83 C 165.75 170.49 166.08 166.08 166.49 161.69 Z" />
</g>
<g id="#a1800bff">
<path fill="#a1800b" opacity="1.00" d=" M 101.42 156.14 C 104.44 154.58 101.58 159.43 101.42 156.14 Z" />
</g>
<g id="#e9cc4aff">
<path fill="#e9cc4a" opacity="1.00" d=" M 95.29 156.89 C 97.88 159.27 100.73 161.36 103.29 163.78 C 105.00 166.33 105.48 169.49 106.96 172.16 C 110.00 174.83 114.17 176.01 116.82 179.21 C 119.09 181.25 120.32 184.67 123.38 185.65 C 128.05 185.87 132.56 184.20 136.92 182.72 C 139.52 181.98 140.22 178.96 141.64 176.97 C 141.21 176.85 140.35 176.63 139.93 176.51 C 141.35 175.77 142.22 174.44 143.00 173.09 C 145.55 172.76 147.20 170.77 148.81 168.98 C 148.67 168.07 148.54 167.16 148.41 166.25 C 149.15 166.31 149.89 166.37 150.63 166.43 C 150.86 165.87 151.31 164.76 151.54 164.20 C 154.72 164.17 158.81 162.89 161.07 165.87 C 163.43 167.89 162.86 171.21 162.94 173.96 C 159.08 183.01 152.70 190.63 146.39 198.08 C 143.86 201.00 141.75 204.46 138.27 206.37 C 134.76 206.23 131.24 206.29 127.73 206.31 C 124.25 203.83 119.76 203.33 116.57 200.40 C 111.81 197.23 108.02 192.93 104.33 188.64 C 100.20 185.97 97.55 181.71 95.18 177.52 C 93.55 174.34 91.23 171.52 90.13 168.08 C 91.02 163.98 92.62 160.15 95.29 156.89 Z" />
</g>
<g id="#323228ff">
<path fill="#323228" opacity="1.00" d=" M 200.23 158.12 C 200.46 158.35 200.91 158.81 201.13 159.04 L 201.11 159.58 C 200.70 159.95 199.88 160.68 199.48 161.05 L 198.84 161.14 C 198.41 161.13 197.54 161.10 197.10 161.09 C 198.04 160.00 198.96 158.84 200.23 158.12 Z" />
<path fill="#323228" opacity="1.00" d=" M 196.54 161.70 C 196.68 161.55 196.96 161.24 197.10 161.09 L 197.12 161.83 L 196.54 161.70 Z" />
<path fill="#323228" opacity="1.00" d=" M 198.24 164.63 C 198.33 164.55 198.53 164.40 198.62 164.32 C 198.53 164.40 198.33 164.55 198.24 164.63 Z" />
<path fill="#323228" opacity="1.00" d=" M 191.44 169.82 C 191.51 169.71 191.67 169.49 191.75 169.38 L 192.01 169.86 L 191.44 169.82 Z" />
<path fill="#323228" opacity="1.00" d=" M 192.01 169.86 L 192.97 169.73 C 192.73 169.76 192.25 169.83 192.01 169.86 Z" />
</g>
<g id="#616161ff">
<path fill="#616161" opacity="1.00" d=" M 201.13 159.04 C 201.20 159.12 201.34 159.27 201.41 159.35 L 201.11 159.58 L 201.13 159.04 Z" />
<path fill="#616161" opacity="1.00" d=" M 198.84 161.14 L 199.48 161.05 C 199.34 161.24 199.08 161.62 198.94 161.82 L 198.84 161.14 Z" />
<path fill="#616161" opacity="1.00" d=" M 197.12 161.83 C 197.57 161.82 198.49 161.82 198.94 161.82 C 198.72 162.12 198.27 162.72 198.04 163.03 L 197.13 162.79 L 197.12 161.83 Z" />
</g>
<g id="#65655bff">
<path fill="#65655b" opacity="1.00" d=" M 56.11 160.47 C 57.46 160.06 57.95 160.56 57.57 161.98 C 56.19 162.42 55.71 161.91 56.11 160.47 Z" />
</g>
<g id="#434339ff">
<path fill="#434339" opacity="1.00" d=" M 171.98 170.48 C 169.21 170.36 169.23 163.83 172.08 164.80 C 172.41 166.68 172.15 168.59 171.98 170.48 Z" />
<path fill="#434339" opacity="1.00" d=" M 199.94 167.85 C 200.07 167.74 200.33 167.51 200.46 167.40 C 200.33 167.51 200.07 167.74 199.94 167.85 Z" />
<path fill="#434339" opacity="1.00" d=" M 199.37 168.32 C 199.51 168.21 199.80 167.97 199.94 167.85 C 199.80 167.97 199.51 168.21 199.37 168.32 Z" />
<path fill="#434339" opacity="1.00" d=" M 196.99 170.19 L 197.14 170.07 C 197.07 170.14 196.95 170.28 196.89 170.35 L 196.99 170.19 Z" />
<path fill="#434339" opacity="1.00" d=" M 170.55 179.57 C 170.60 179.46 170.72 179.24 170.78 179.13 C 170.72 179.24 170.60 179.46 170.55 179.57 Z" />
<path fill="#434339" opacity="1.00" d=" M 170.42 182.04 C 171.13 182.86 171.33 183.77 171.00 184.76 C 169.42 184.38 169.22 183.47 170.42 182.04 Z" />
</g>
<g id="#fefefeff">
<path fill="#fefefe" opacity="1.00" d=" M 203.90 173.76 C 205.32 173.37 206.78 173.22 208.26 173.21 C 208.50 173.89 208.97 175.25 209.21 175.93 C 209.24 177.69 209.25 179.45 209.28 181.22 C 206.33 184.77 203.44 188.38 201.06 192.35 C 200.43 192.40 199.17 192.52 198.54 192.58 C 198.65 189.41 198.47 186.24 198.62 183.08 C 199.49 179.57 201.51 176.44 203.90 173.76 Z" />
</g>
<g id="#80837aff">
<path fill="#80837a" opacity="1.00" d=" M 286.05 175.36 C 287.30 174.54 289.00 176.67 287.82 177.68 C 286.51 178.57 284.95 176.41 286.05 175.36 Z" />
<path fill="#80837a" opacity="1.00" d=" M 148.89 253.00 C 151.98 250.74 154.55 247.08 158.71 246.95 C 158.72 248.96 158.72 250.99 158.59 253.00 L 148.89 253.00 Z" />
</g>
<g id="#d2d2d2ff">
<path fill="#d2d2d2" opacity="1.00" d=" M 291.12 179.14 C 294.39 179.38 289.55 182.14 291.12 179.14 Z" />
</g>
<g id="#8e0013ff">
<path fill="#8e0013" opacity="1.00" d=" M 263.95 204.88 C 267.12 202.49 269.56 199.05 273.44 197.69 C 273.54 200.24 271.16 201.94 269.83 203.88 C 265.27 208.63 262.08 214.56 257.02 218.85 C 253.22 222.09 250.69 227.21 245.48 228.38 C 245.89 224.57 248.57 221.30 249.65 217.57 C 254.06 212.99 258.46 208.20 263.95 204.88 Z" />
</g>
<g id="#9b9678ff">
<path fill="#9b9678" opacity="1.00" d=" M 0.00 200.53 C 1.42 204.87 0.78 209.48 0.93 213.97 C 1.11 226.98 0.73 239.99 1.11 253.00 L 0.00 253.00 L 0.00 200.53 Z" />
</g>
<g id="#23241cff">
<path fill="#23241c" opacity="1.00" d=" M 150.45 210.07 C 150.84 210.06 151.61 210.04 152.00 210.03 L 151.91 210.69 L 151.06 211.19 L 150.44 210.92 L 150.45 210.07 Z" />
</g>
<g id="#e4e2e5ff">
<path fill="#e4e2e5" opacity="1.00" d=" M 311.91 253.00 C 312.20 239.84 311.14 226.54 313.00 213.47 L 313.00 253.00 L 311.91 253.00 Z" />
</g>
<g id="#9b9b98ff">
<path fill="#9b9b98" opacity="1.00" d=" M 158.45 231.71 C 158.75 231.62 159.34 231.45 159.63 231.36 C 160.12 234.57 158.28 238.41 161.05 240.93 L 161.43 241.74 C 160.34 241.70 159.26 241.66 158.18 241.62 C 158.28 238.31 158.31 235.01 158.45 231.71 Z" />
</g>
<g id="#c7c7c7ff">
<path fill="#c7c7c7" opacity="1.00" d=" M 235.12 239.21 C 236.77 238.64 237.36 239.17 236.91 240.77 C 235.26 241.34 234.67 240.82 235.12 239.21 Z" />
</g>
<g id="#87816cff">
<path fill="#87816c" opacity="1.00" d=" M 110.70 242.35 C 112.69 245.48 111.71 249.50 111.52 253.00 L 110.20 253.00 C 110.36 249.45 110.58 245.90 110.70 242.35 Z" />
</g>
<g id="#d9d9d9ff">
<path fill="#d9d9d9" opacity="1.00" d=" M 225.98 246.95 C 226.16 246.35 226.51 245.15 226.68 244.55 C 228.71 245.44 232.98 244.69 232.27 248.06 C 230.18 247.67 228.08 247.29 225.98 246.95 Z" />
</g>
<g id="#ccccccff">
<path fill="#cccccc" opacity="1.00" d=" M 234.17 251.99 C 234.96 250.97 234.97 248.77 236.75 249.18 C 237.48 250.33 237.43 251.70 237.33 253.00 L 228.75 253.00 C 228.77 252.10 228.82 250.30 228.85 249.40 C 231.01 249.42 232.21 251.54 234.17 251.99 Z" />
</g>
</svg>
